<svg xmlns="http://www.w3.org/2000/svg" xmlns:xlink="http://www.w3.org/1999/xlink" width="400" zoomAndPan="magnify" viewBox="0 0 300 225" height="300" preserveAspectRatio="xMidYMid meet" version="1.0"><defs><filter x="0%" y="0%" width="100%" height="100%" id="7ccce91b01"><feColorMatrix values="0 0 0 0 1 0 0 0 0 1 0 0 0 0 1 0 0 0 1 0" color-interpolation-filters="sRGB"/></filter><clipPath id="f1be2c2528"><path d="M 72 75.734375 L 244 75.734375 L 244 179.984375 L 72 179.984375 Z M 72 75.734375 " clip-rule="nonzero"/></clipPath><clipPath id="69e0868ea3"><path d="M 158.128906 116.703125 L 218.128906 116.703125 L 218.128906 162.453125 L 158.128906 162.453125 Z M 158.128906 116.703125 " clip-rule="nonzero"/></clipPath><clipPath id="1a689b2244"><path d="M 158.128906 125 L 218.128906 125 L 218.128906 126.390625 L 158.128906 126.390625 Z M 158.128906 125 " clip-rule="nonzero"/></clipPath><clipPath id="a05690b66f"><path d="M 55.378906 45.183594 L 158.128906 45.183594 L 158.128906 147.933594 L 55.378906 147.933594 Z M 55.378906 45.183594 " clip-rule="nonzero"/></clipPath><clipPath id="d1d3d155ba"><path d="M 55.378906 45.183594 L 80 45.183594 L 80 70 L 55.378906 70 Z M 55.378906 45.183594 " clip-rule="nonzero"/></clipPath><mask id="48fa0aaeaf"><g filter="url(#7ccce91b01)"><rect x="-30" width="360" fill="#000000" y="-22.5" height="270" fill-opacity="0.51"/></g></mask><clipPath id="c1a80fc7d0"><path d="M 7 5 L 58.667969 5 L 58.667969 34 L 7 34 Z M 7 5 " clip-rule="nonzero"/></clipPath><clipPath id="c57108ca6d"><path d="M 0.167969 0.867188 L 38 0.867188 L 38 43.617188 L 0.167969 43.617188 Z M 0.167969 0.867188 " clip-rule="nonzero"/></clipPath><clipPath id="9e4cd77a38"><path d="M 6.039062 1.359375 L 46.921875 1.359375 L 46.921875 43.589844 L 6.039062 43.589844 Z M 6.039062 1.359375 " clip-rule="nonzero"/></clipPath><clipPath id="32302532c4"><rect x="0" width="59" y="0" height="45"/></clipPath><clipPath id="b9bf8d7031"><path d="M 186.042969 109.421875 L 190.585938 109.421875 L 190.585938 110.367188 L 186.042969 110.367188 Z M 186.042969 109.421875 " clip-rule="nonzero"/></clipPath><clipPath id="046db557b6"><path d="M 187 84.867188 L 189 84.867188 L 189 90 L 187 90 Z M 187 84.867188 " clip-rule="nonzero"/></clipPath><clipPath id="db78edc6fe"><path d="M 196.476562 97.058594 L 201.0625 97.058594 L 201.0625 97.792969 L 196.476562 97.792969 Z M 196.476562 97.058594 " clip-rule="nonzero"/></clipPath><clipPath id="4de6cc7196"><path d="M 175.5625 97 L 181 97 L 181 98 L 175.5625 98 Z M 175.5625 97 " clip-rule="nonzero"/></clipPath></defs><g clip-path="url(#f1be2c2528)"><path fill="#545454" d="M 92.578125 75.734375 C 89.917969 75.734375 87.773438 77.832031 87.773438 80.441406 L 87.773438 166.570312 C 87.773438 169.050781 87.421875 171.070312 89.679688 171.265625 L 73.878906 171.265625 C 72.011719 171.265625 72.964844 172.722656 72.964844 174.535156 L 72.964844 176.714844 C 72.964844 178.523438 74.472656 179.984375 76.339844 179.984375 L 240.019531 179.984375 C 241.890625 179.984375 243.394531 178.523438 243.394531 176.714844 L 243.394531 174.535156 C 243.394531 172.722656 244.351562 171.265625 242.480469 171.265625 L 226.683594 171.265625 C 228.9375 171.070312 228.589844 169.050781 228.589844 166.570312 L 228.589844 80.441406 C 228.589844 77.832031 226.445312 75.734375 223.78125 75.734375 Z M 134.109375 76.875 C 134.792969 76.875 135.347656 77.417969 135.347656 78.085938 C 135.347656 78.753906 134.792969 79.296875 134.109375 79.296875 C 133.425781 79.296875 132.875 78.753906 132.875 78.085938 C 132.875 77.417969 133.425781 76.875 134.109375 76.875 Z M 92.460938 80.449219 L 223.898438 80.449219 L 223.898438 166.5625 L 92.460938 166.5625 Z M 136.8125 171.277344 L 179.550781 171.277344 C 179.484375 172.191406 178.851562 172.902344 178.074219 172.902344 L 138.289062 172.902344 C 137.511719 172.902344 136.875 172.191406 136.8125 171.277344 Z M 223.585938 173.859375 C 224.589844 173.859375 225.40625 174.648438 225.40625 175.625 C 225.40625 176.597656 224.589844 177.390625 223.585938 177.390625 C 222.578125 177.390625 221.761719 176.597656 221.761719 175.625 C 221.761719 174.648438 222.578125 173.859375 223.585938 173.859375 Z M 229.332031 173.859375 C 230.339844 173.859375 231.152344 174.648438 231.152344 175.625 C 231.152344 176.597656 230.339844 177.390625 229.332031 177.390625 C 228.324219 177.390625 227.507812 176.597656 227.507812 175.625 C 227.507812 174.648438 228.324219 173.859375 229.332031 173.859375 Z M 235.078125 173.859375 C 236.085938 173.859375 236.902344 174.648438 236.902344 175.625 C 236.902344 176.597656 236.085938 177.390625 235.078125 177.390625 C 234.074219 177.390625 233.257812 176.597656 233.257812 175.625 C 233.257812 174.648438 234.074219 173.859375 235.078125 173.859375 Z M 80.238281 175.027344 L 89.800781 175.027344 C 90.269531 175.027344 90.644531 175.292969 90.644531 175.625 C 90.644531 175.953125 90.269531 176.21875 89.800781 176.21875 L 80.238281 176.21875 C 79.773438 176.21875 79.394531 175.953125 79.394531 175.625 C 79.394531 175.292969 79.773438 175.027344 80.238281 175.027344 Z M 80.238281 175.027344 " fill-opacity="1" fill-rule="nonzero"/></g><g clip-path="url(#69e0868ea3)"><path fill="#545454" d="M 160.746094 117.96875 C 159.992188 117.96875 159.378906 118.585938 159.378906 119.347656 L 159.378906 159.800781 C 159.378906 160.5625 159.992188 161.179688 160.746094 161.179688 L 215.515625 161.179688 C 216.269531 161.179688 216.882812 160.5625 216.882812 159.800781 L 216.882812 119.347656 C 216.882812 118.585938 216.269531 117.96875 215.515625 117.96875 Z M 215.515625 162.441406 L 160.746094 162.441406 C 159.304688 162.441406 158.128906 161.257812 158.128906 159.800781 L 158.128906 119.347656 C 158.128906 117.890625 159.304688 116.707031 160.746094 116.707031 L 215.515625 116.707031 C 216.957031 116.707031 218.132812 117.890625 218.132812 119.347656 L 218.132812 159.800781 C 218.132812 161.257812 216.957031 162.441406 215.515625 162.441406 " fill-opacity="1" fill-rule="evenodd"/></g><g clip-path="url(#1a689b2244)"><path fill="#545454" d="M 217.507812 126.28125 L 158.753906 126.28125 C 158.410156 126.28125 158.128906 125.996094 158.128906 125.648438 C 158.128906 125.300781 158.410156 125.019531 158.753906 125.019531 L 217.507812 125.019531 C 217.851562 125.019531 218.132812 125.300781 218.132812 125.648438 C 218.132812 125.996094 217.851562 126.28125 217.507812 126.28125 " fill-opacity="1" fill-rule="evenodd"/></g><path fill="#545454" d="M 164.605469 120.648438 C 164.144531 120.648438 163.765625 121.027344 163.765625 121.492188 C 163.765625 121.960938 164.144531 122.339844 164.605469 122.339844 C 165.070312 122.339844 165.445312 121.960938 165.445312 121.492188 C 165.445312 121.027344 165.070312 120.648438 164.605469 120.648438 Z M 164.605469 123.601562 C 163.453125 123.601562 162.515625 122.65625 162.515625 121.492188 C 162.515625 120.332031 163.453125 119.386719 164.605469 119.386719 C 165.757812 119.386719 166.695312 120.332031 166.695312 121.492188 C 166.695312 122.65625 165.757812 123.601562 164.605469 123.601562 " fill-opacity="1" fill-rule="evenodd"/><path fill="#545454" d="M 169.441406 120.648438 C 168.976562 120.648438 168.601562 121.027344 168.601562 121.492188 C 168.601562 121.960938 168.976562 122.339844 169.441406 122.339844 C 169.90625 122.339844 170.28125 121.960938 170.28125 121.492188 C 170.28125 121.027344 169.90625 120.648438 169.441406 120.648438 Z M 169.441406 123.601562 C 168.289062 123.601562 167.351562 122.65625 167.351562 121.492188 C 167.351562 120.332031 168.289062 119.386719 169.441406 119.386719 C 170.59375 119.386719 171.53125 120.332031 171.53125 121.492188 C 171.53125 122.65625 170.59375 123.601562 169.441406 123.601562 " fill-opacity="1" fill-rule="evenodd"/><path fill="#545454" d="M 174.273438 120.648438 C 173.8125 120.648438 173.433594 121.027344 173.433594 121.492188 C 173.433594 121.960938 173.8125 122.339844 174.273438 122.339844 C 174.738281 122.339844 175.113281 121.960938 175.113281 121.492188 C 175.113281 121.027344 174.738281 120.648438 174.273438 120.648438 Z M 174.273438 123.601562 C 173.121094 123.601562 172.183594 122.65625 172.183594 121.492188 C 172.183594 120.332031 173.121094 119.386719 174.273438 119.386719 C 175.429688 119.386719 176.367188 120.332031 176.367188 121.492188 C 176.367188 122.65625 175.429688 123.601562 174.273438 123.601562 " fill-opacity="1" fill-rule="evenodd"/><path fill="#545454" d="M 195.261719 120.648438 C 194.804688 120.648438 194.433594 121.023438 194.433594 121.484375 C 194.433594 121.945312 194.804688 122.320312 195.261719 122.320312 L 211.667969 122.320312 C 212.125 122.320312 212.496094 121.945312 212.496094 121.484375 C 212.496094 121.023438 212.125 120.648438 211.667969 120.648438 Z M 211.667969 123.578125 L 195.261719 123.578125 C 194.113281 123.578125 193.183594 122.640625 193.183594 121.484375 C 193.183594 120.328125 194.113281 119.386719 195.261719 119.386719 L 211.667969 119.386719 C 212.8125 119.386719 213.746094 120.328125 213.746094 121.484375 C 213.746094 122.640625 212.8125 123.578125 211.667969 123.578125 " fill-opacity="1" fill-rule="evenodd"/><path fill="#545454" d="M 161.878906 159.289062 C 161.535156 159.289062 161.253906 159.007812 161.253906 158.660156 L 161.253906 128.800781 C 161.253906 128.453125 161.535156 128.171875 161.878906 128.171875 C 162.226562 128.171875 162.503906 128.453125 162.503906 128.800781 L 162.503906 158.660156 C 162.503906 159.007812 162.226562 159.289062 161.878906 159.289062 Z M 214.382812 159.289062 C 214.035156 159.289062 213.757812 159.007812 213.757812 158.660156 L 213.757812 128.800781 C 213.757812 128.453125 214.035156 128.171875 214.382812 128.171875 C 214.726562 128.171875 215.007812 128.453125 215.007812 128.800781 L 215.007812 158.660156 C 215.007812 159.007812 214.726562 159.289062 214.382812 159.289062 " fill-opacity="1" fill-rule="evenodd"/><path fill="#545454" d="M 203.9375 148.167969 L 172.324219 148.167969 C 171.980469 148.167969 171.699219 147.886719 171.699219 147.539062 C 171.699219 147.191406 171.980469 146.910156 172.324219 146.910156 L 203.9375 146.910156 C 204.28125 146.910156 204.5625 147.191406 204.5625 147.539062 C 204.5625 147.886719 204.28125 148.167969 203.9375 148.167969 " fill-opacity="1" fill-rule="evenodd"/><path fill="#545454" d="M 188.132812 131.195312 C 184.753906 131.195312 182.007812 133.964844 182.007812 137.367188 C 182.007812 140.769531 184.753906 143.539062 188.132812 143.539062 C 191.507812 143.539062 194.253906 140.769531 194.253906 137.367188 C 194.253906 133.964844 191.507812 131.195312 188.132812 131.195312 Z M 188.132812 144.800781 C 184.066406 144.800781 180.757812 141.464844 180.757812 137.367188 C 180.757812 133.269531 184.066406 129.933594 188.132812 129.933594 C 192.195312 129.933594 195.503906 133.269531 195.503906 137.367188 C 195.503906 141.464844 192.195312 144.800781 188.132812 144.800781 " fill-opacity="1" fill-rule="evenodd"/><path fill="#545454" d="M 188.320312 141.894531 C 188.105469 141.894531 187.894531 141.78125 187.78125 141.578125 L 185.304688 137.257812 L 182.976562 141.328125 C 182.804688 141.628906 182.421875 141.734375 182.121094 141.558594 C 181.824219 141.386719 181.722656 141 181.894531 140.699219 L 184.765625 135.683594 C 184.875 135.488281 185.082031 135.367188 185.304688 135.367188 C 185.53125 135.367188 185.738281 135.488281 185.847656 135.683594 L 188.863281 140.949219 C 189.035156 141.25 188.933594 141.632812 188.632812 141.808594 C 188.535156 141.867188 188.425781 141.894531 188.320312 141.894531 " fill-opacity="1" fill-rule="evenodd"/><path fill="#545454" d="M 186.738281 144.65625 C 186.632812 144.65625 186.523438 144.628906 186.425781 144.570312 C 186.128906 144.394531 186.023438 144.011719 186.199219 143.710938 L 190.175781 136.757812 C 190.289062 136.566406 190.496094 136.445312 190.71875 136.445312 C 190.941406 136.445312 191.148438 136.566406 191.257812 136.757812 L 193.894531 141.359375 C 194.066406 141.660156 193.964844 142.046875 193.664062 142.21875 C 193.367188 142.394531 192.984375 142.292969 192.8125 141.988281 L 190.71875 138.335938 L 187.28125 144.339844 C 187.164062 144.542969 186.953125 144.65625 186.738281 144.65625 " fill-opacity="1" fill-rule="evenodd"/><path fill="#545454" d="M 188.769531 133.558594 C 188.265625 133.558594 187.855469 133.972656 187.855469 134.480469 C 187.855469 134.984375 188.265625 135.398438 188.769531 135.398438 C 189.269531 135.398438 189.679688 134.984375 189.679688 134.480469 C 189.679688 133.972656 189.269531 133.558594 188.769531 133.558594 Z M 188.769531 136.660156 C 187.578125 136.660156 186.605469 135.679688 186.605469 134.480469 C 186.605469 133.277344 187.578125 132.300781 188.769531 132.300781 C 189.960938 132.300781 190.929688 133.277344 190.929688 134.480469 C 190.929688 135.679688 189.960938 136.660156 188.769531 136.660156 " fill-opacity="1" fill-rule="evenodd"/><path fill="#545454" d="M 197.617188 151.574219 L 178.644531 151.574219 C 178.300781 151.574219 178.019531 151.292969 178.019531 150.941406 C 178.019531 150.59375 178.300781 150.3125 178.644531 150.3125 L 197.617188 150.3125 C 197.960938 150.3125 198.242188 150.59375 198.242188 150.941406 C 198.242188 151.292969 197.960938 151.574219 197.617188 151.574219 " fill-opacity="1" fill-rule="evenodd"/><path fill="#545454" d="M 182.6875 154.976562 C 182.335938 154.976562 182.050781 155.265625 182.050781 155.621094 C 182.050781 155.976562 182.335938 156.265625 182.6875 156.265625 L 193.570312 156.265625 C 193.921875 156.265625 194.210938 155.976562 194.210938 155.621094 C 194.210938 155.265625 193.921875 154.980469 193.570312 154.980469 Z M 193.570312 157.523438 L 182.6875 157.523438 C 181.648438 157.523438 180.800781 156.671875 180.800781 155.621094 C 180.800781 154.570312 181.648438 153.71875 182.6875 153.71875 L 193.570312 153.71875 C 194.613281 153.71875 195.460938 154.570312 195.460938 155.621094 C 195.460938 156.671875 194.613281 157.523438 193.570312 157.523438 " fill-opacity="1" fill-rule="evenodd"/><path fill="#545454" d="M 168.941406 147.316406 C 168.78125 147.316406 168.621094 147.253906 168.5 147.128906 L 165.570312 144.175781 C 165.449219 144.058594 165.386719 143.898438 165.386719 143.730469 C 165.386719 143.5625 165.449219 143.402344 165.570312 143.285156 L 168.5 140.328125 C 168.742188 140.082031 169.140625 140.082031 169.382812 140.328125 C 169.628906 140.574219 169.628906 140.972656 169.382812 141.21875 L 166.894531 143.730469 L 169.382812 146.238281 C 169.628906 146.484375 169.628906 146.886719 169.382812 147.128906 C 169.261719 147.253906 169.101562 147.316406 168.941406 147.316406 " fill-opacity="1" fill-rule="evenodd"/><path fill="#545454" d="M 207.320312 147.316406 C 207.160156 147.316406 207 147.253906 206.878906 147.128906 C 206.632812 146.882812 206.632812 146.484375 206.878906 146.238281 L 209.367188 143.730469 L 206.878906 141.21875 C 206.632812 140.972656 206.632812 140.574219 206.878906 140.328125 C 207.121094 140.082031 207.519531 140.082031 207.761719 140.328125 L 210.695312 143.285156 C 210.8125 143.402344 210.878906 143.5625 210.878906 143.730469 C 210.878906 143.894531 210.8125 144.058594 210.695312 144.175781 L 207.761719 147.128906 C 207.640625 147.253906 207.480469 147.316406 207.320312 147.316406 " fill-opacity="1" fill-rule="evenodd"/><g clip-path="url(#a05690b66f)"><path fill="#545454" d="M 56.976562 46.835938 L 56.976562 68.015625 L 57.210938 68.015625 L 57.210938 146.273438 L 78.414062 146.273438 L 78.414062 68.015625 L 156.539062 68.015625 L 156.539062 46.835938 Z M 55.378906 69.609375 L 55.378906 45.242188 L 158.136719 45.242188 L 158.136719 69.609375 L 80.011719 69.609375 L 80.011719 147.867188 L 55.613281 147.867188 L 55.613281 69.609375 L 55.378906 69.609375 " fill-opacity="1" fill-rule="nonzero"/></g><g clip-path="url(#d1d3d155ba)"><path fill="#545454" d="M 55.617188 46.605469 L 56.738281 45.472656 L 79.777344 68.246094 L 78.652344 69.378906 L 55.617188 46.605469 " fill-opacity="1" fill-rule="nonzero"/></g><path fill="#545454" d="M 153.152344 68.8125 L 153.152344 56.402344 L 154.109375 56.402344 L 154.109375 68.8125 L 153.152344 68.8125 " fill-opacity="1" fill-rule="nonzero"/><path fill="#545454" d="M 150.273438 68.8125 L 150.273438 62.605469 L 151.230469 62.605469 L 151.230469 68.8125 L 150.273438 68.8125 " fill-opacity="1" fill-rule="nonzero"/><path fill="#545454" d="M 146.761719 68.8125 L 146.761719 56.402344 L 147.71875 56.402344 L 147.71875 68.8125 L 146.761719 68.8125 " fill-opacity="1" fill-rule="nonzero"/><path fill="#545454" d="M 143.882812 68.8125 L 143.882812 62.605469 L 144.839844 62.605469 L 144.839844 68.8125 L 143.882812 68.8125 " fill-opacity="1" fill-rule="nonzero"/><path fill="#545454" d="M 140.367188 68.8125 L 140.367188 56.402344 L 141.328125 56.402344 L 141.328125 68.8125 L 140.367188 68.8125 " fill-opacity="1" fill-rule="nonzero"/><path fill="#545454" d="M 137.492188 68.8125 L 137.492188 62.605469 L 138.449219 62.605469 L 138.449219 68.8125 L 137.492188 68.8125 " fill-opacity="1" fill-rule="nonzero"/><path fill="#545454" d="M 133.976562 68.8125 L 133.976562 56.402344 L 134.9375 56.402344 L 134.9375 68.8125 L 133.976562 68.8125 " fill-opacity="1" fill-rule="nonzero"/><path fill="#545454" d="M 131.101562 68.8125 L 131.101562 62.605469 L 132.058594 62.605469 L 132.058594 68.8125 L 131.101562 68.8125 " fill-opacity="1" fill-rule="nonzero"/><path fill="#545454" d="M 127.585938 68.8125 L 127.585938 56.402344 L 128.542969 56.402344 L 128.542969 68.8125 L 127.585938 68.8125 " fill-opacity="1" fill-rule="nonzero"/><path fill="#545454" d="M 124.710938 68.8125 L 124.710938 62.605469 L 125.667969 62.605469 L 125.667969 68.8125 L 124.710938 68.8125 " fill-opacity="1" fill-rule="nonzero"/><path fill="#545454" d="M 121.195312 68.8125 L 121.195312 56.402344 L 122.152344 56.402344 L 122.152344 68.8125 L 121.195312 68.8125 " fill-opacity="1" fill-rule="nonzero"/><path fill="#545454" d="M 118.316406 68.8125 L 118.316406 62.605469 L 119.277344 62.605469 L 119.277344 68.8125 L 118.316406 68.8125 " fill-opacity="1" fill-rule="nonzero"/><path fill="#545454" d="M 114.804688 68.8125 L 114.804688 56.402344 L 115.761719 56.402344 L 115.761719 68.8125 L 114.804688 68.8125 " fill-opacity="1" fill-rule="nonzero"/><path fill="#545454" d="M 111.925781 68.8125 L 111.925781 62.605469 L 112.886719 62.605469 L 112.886719 68.8125 L 111.925781 68.8125 " fill-opacity="1" fill-rule="nonzero"/><path fill="#545454" d="M 108.414062 68.8125 L 108.414062 56.402344 L 109.371094 56.402344 L 109.371094 68.8125 L 108.414062 68.8125 " fill-opacity="1" fill-rule="nonzero"/><path fill="#545454" d="M 105.535156 68.8125 L 105.535156 62.605469 L 106.492188 62.605469 L 106.492188 68.8125 L 105.535156 68.8125 " fill-opacity="1" fill-rule="nonzero"/><path fill="#545454" d="M 102.023438 68.8125 L 102.023438 56.402344 L 102.980469 56.402344 L 102.980469 68.8125 L 102.023438 68.8125 " fill-opacity="1" fill-rule="nonzero"/><path fill="#545454" d="M 99.144531 68.8125 L 99.144531 62.605469 L 100.101562 62.605469 L 100.101562 68.8125 L 99.144531 68.8125 " fill-opacity="1" fill-rule="nonzero"/><path fill="#545454" d="M 95.632812 68.8125 L 95.632812 56.402344 L 96.589844 56.402344 L 96.589844 68.8125 L 95.632812 68.8125 " fill-opacity="1" fill-rule="nonzero"/><path fill="#545454" d="M 92.753906 68.8125 L 92.753906 62.605469 L 93.710938 62.605469 L 93.710938 68.8125 L 92.753906 68.8125 " fill-opacity="1" fill-rule="nonzero"/><path fill="#545454" d="M 89.238281 68.8125 L 89.238281 56.402344 L 90.199219 56.402344 L 90.199219 68.8125 L 89.238281 68.8125 " fill-opacity="1" fill-rule="nonzero"/><path fill="#545454" d="M 86.363281 68.8125 L 86.363281 62.605469 L 87.320312 62.605469 L 87.320312 68.8125 L 86.363281 68.8125 " fill-opacity="1" fill-rule="nonzero"/><path fill="#545454" d="M 82.851562 68.8125 L 82.851562 56.402344 L 83.808594 56.402344 L 83.808594 68.8125 L 82.851562 68.8125 " fill-opacity="1" fill-rule="nonzero"/><path fill="#545454" d="M 79.972656 68.8125 L 79.972656 62.605469 L 80.929688 62.605469 L 80.929688 68.8125 L 79.972656 68.8125 " fill-opacity="1" fill-rule="nonzero"/><path fill="#545454" d="M 66.789062 73.636719 L 66.789062 72.679688 L 79.210938 72.679688 L 79.210938 73.636719 L 66.789062 73.636719 " fill-opacity="1" fill-rule="nonzero"/><path fill="#545454" d="M 73 70.765625 L 73 69.808594 L 79.210938 69.808594 L 79.210938 70.765625 L 73 70.765625 " fill-opacity="1" fill-rule="nonzero"/><path fill="#545454" d="M 66.789062 80.023438 L 66.789062 79.066406 L 79.210938 79.066406 L 79.210938 80.023438 L 66.789062 80.023438 " fill-opacity="1" fill-rule="nonzero"/><path fill="#545454" d="M 73 77.148438 L 73 76.191406 L 79.210938 76.191406 L 79.210938 77.148438 L 73 77.148438 " fill-opacity="1" fill-rule="nonzero"/><path fill="#545454" d="M 66.789062 86.40625 L 66.789062 85.449219 L 79.210938 85.449219 L 79.210938 86.40625 L 66.789062 86.40625 " fill-opacity="1" fill-rule="nonzero"/><path fill="#545454" d="M 73 83.53125 L 73 82.574219 L 79.210938 82.574219 L 79.210938 83.53125 L 73 83.53125 " fill-opacity="1" fill-rule="nonzero"/><path fill="#545454" d="M 66.789062 92.789062 L 66.789062 91.832031 L 79.210938 91.832031 L 79.210938 92.789062 L 66.789062 92.789062 " fill-opacity="1" fill-rule="nonzero"/><path fill="#545454" d="M 73 89.917969 L 73 88.960938 L 79.210938 88.960938 L 79.210938 89.917969 L 73 89.917969 " fill-opacity="1" fill-rule="nonzero"/><path fill="#545454" d="M 66.789062 99.175781 L 66.789062 98.21875 L 79.210938 98.21875 L 79.210938 99.175781 L 66.789062 99.175781 " fill-opacity="1" fill-rule="nonzero"/><path fill="#545454" d="M 73 96.300781 L 73 95.34375 L 79.210938 95.34375 L 79.210938 96.300781 L 73 96.300781 " fill-opacity="1" fill-rule="nonzero"/><path fill="#545454" d="M 66.789062 105.558594 L 66.789062 104.601562 L 79.210938 104.601562 L 79.210938 105.558594 L 66.789062 105.558594 " fill-opacity="1" fill-rule="nonzero"/><path fill="#545454" d="M 73 102.683594 L 73 101.726562 L 79.210938 101.726562 L 79.210938 102.683594 L 73 102.683594 " fill-opacity="1" fill-rule="nonzero"/><path fill="#545454" d="M 66.789062 111.941406 L 66.789062 110.984375 L 79.210938 110.984375 L 79.210938 111.941406 L 66.789062 111.941406 " fill-opacity="1" fill-rule="nonzero"/><path fill="#545454" d="M 73 109.070312 L 73 108.113281 L 79.210938 108.113281 L 79.210938 109.070312 L 73 109.070312 " fill-opacity="1" fill-rule="nonzero"/><path fill="#545454" d="M 66.789062 118.328125 L 66.789062 117.371094 L 79.210938 117.371094 L 79.210938 118.328125 L 66.789062 118.328125 " fill-opacity="1" fill-rule="nonzero"/><path fill="#545454" d="M 73 115.453125 L 73 114.496094 L 79.210938 114.496094 L 79.210938 115.453125 L 73 115.453125 " fill-opacity="1" fill-rule="nonzero"/><path fill="#545454" d="M 66.789062 124.710938 L 66.789062 123.753906 L 79.210938 123.753906 L 79.210938 124.710938 L 66.789062 124.710938 " fill-opacity="1" fill-rule="nonzero"/><path fill="#545454" d="M 73 121.835938 L 73 120.878906 L 79.210938 120.878906 L 79.210938 121.835938 L 73 121.835938 " fill-opacity="1" fill-rule="nonzero"/><path fill="#545454" d="M 66.789062 131.09375 L 66.789062 130.136719 L 79.210938 130.136719 L 79.210938 131.09375 L 66.789062 131.09375 " fill-opacity="1" fill-rule="nonzero"/><path fill="#545454" d="M 73 128.222656 L 73 127.265625 L 79.210938 127.265625 L 79.210938 128.222656 L 73 128.222656 " fill-opacity="1" fill-rule="nonzero"/><path fill="#545454" d="M 66.789062 137.480469 L 66.789062 136.523438 L 79.210938 136.523438 L 79.210938 137.480469 L 66.789062 137.480469 " fill-opacity="1" fill-rule="nonzero"/><path fill="#545454" d="M 73 134.605469 L 73 133.648438 L 79.210938 133.648438 L 79.210938 134.605469 L 73 134.605469 " fill-opacity="1" fill-rule="nonzero"/><path fill="#545454" d="M 66.789062 143.863281 L 66.789062 142.90625 L 79.210938 142.90625 L 79.210938 143.863281 L 66.789062 143.863281 " fill-opacity="1" fill-rule="nonzero"/><path fill="#545454" d="M 73 140.988281 L 73 140.03125 L 79.210938 140.03125 L 79.210938 140.988281 L 73 140.988281 " fill-opacity="1" fill-rule="nonzero"/><g mask="url(#48fa0aaeaf)"><g transform="matrix(1, 0, 0, 1, 95, 84)"><g clip-path="url(#32302532c4)"><g clip-path="url(#c1a80fc7d0)"><path fill="#8ac0c8" d="M 18.703125 5.398438 L 15 5.398438 L 15 6.847656 L 18.703125 6.847656 Z M 19.945312 8.675781 L 7.886719 8.675781 L 7.886719 10.125 L 19.945312 10.125 Z M 36.382812 11.953125 L 30.566406 11.953125 L 30.566406 13.402344 L 36.382812 13.402344 Z M 15.601562 15.234375 L 7.886719 15.234375 L 7.886719 16.679688 L 15.601562 16.679688 Z M 24.609375 18.511719 L 7.886719 18.511719 L 7.886719 19.957031 L 24.609375 19.957031 Z M 35.390625 19.957031 L 52.109375 19.957031 L 52.109375 18.511719 L 35.390625 18.511719 Z M 47.714844 28.34375 L 47.714844 29.792969 L 58.667969 29.792969 L 58.667969 28.34375 Z M 20.296875 29.792969 L 46.257812 29.792969 L 46.257812 28.34375 L 20.296875 28.34375 Z M 7.886719 33.070312 L 18.601562 33.070312 L 18.601562 31.621094 L 7.886719 31.621094 L 7.886719 33.070312 " fill-opacity="1" fill-rule="nonzero"/></g><path fill="#18bd9c" d="M 41.441406 8.675781 L 29.382812 8.675781 L 29.382812 10.125 L 41.441406 10.125 Z M 29.113281 11.953125 L 7.886719 11.953125 L 7.886719 13.402344 L 29.113281 13.402344 Z M 25.828125 23.234375 L 40.414062 23.234375 L 40.414062 21.789062 L 25.828125 21.789062 Z M 18.839844 28.34375 L 7.886719 28.34375 L 7.886719 29.792969 L 18.839844 29.792969 Z M 39.339844 31.621094 L 39.339844 33.070312 L 42.46875 33.070312 L 42.46875 31.621094 Z M 14.605469 36.347656 L 39.464844 36.347656 L 39.464844 34.898438 L 14.605469 34.898438 L 14.605469 36.347656 " fill-opacity="1" fill-rule="nonzero"/><g clip-path="url(#c57108ca6d)"><path fill="#fcde82" d="M 0.167969 3.570312 L 1.621094 3.570312 L 1.621094 2.121094 L 0.167969 2.121094 Z M 0.167969 6.847656 L 1.621094 6.847656 L 1.621094 5.398438 L 0.167969 5.398438 Z M 27.929688 8.675781 L 21.402344 8.675781 L 21.402344 10.125 L 27.929688 10.125 Z M 0.167969 10.125 L 1.621094 10.125 L 1.621094 8.675781 L 0.167969 8.675781 Z M 0.167969 13.402344 L 1.621094 13.402344 L 1.621094 11.953125 L 0.167969 11.953125 Z M 33.0625 15.234375 L 17.054688 15.234375 L 17.054688 16.679688 L 33.0625 16.679688 Z M 0.167969 16.679688 L 1.621094 16.679688 L 1.621094 15.234375 L 0.167969 15.234375 Z M 0.167969 19.957031 L 1.621094 19.957031 L 1.621094 18.511719 L 0.167969 18.511719 Z M 24.371094 21.789062 L 7.886719 21.789062 L 7.886719 23.234375 L 24.371094 23.234375 Z M 0.167969 23.234375 L 1.621094 23.234375 L 1.621094 21.789062 L 0.167969 21.789062 Z M 0.167969 26.511719 L 1.621094 26.511719 L 1.621094 25.066406 L 0.167969 25.066406 Z M 0.167969 29.792969 L 1.621094 29.792969 L 1.621094 28.34375 L 0.167969 28.34375 Z M 20.058594 31.621094 L 20.058594 33.070312 L 37.886719 33.070312 L 37.886719 31.621094 Z M 0.167969 33.070312 L 1.621094 33.070312 L 1.621094 31.621094 L 0.167969 31.621094 Z M 7.886719 36.347656 L 13.148438 36.347656 L 13.148438 34.898438 L 7.886719 34.898438 Z M 0.167969 36.347656 L 1.621094 36.347656 L 1.621094 34.898438 L 0.167969 34.898438 Z M 0.167969 39.625 L 1.621094 39.625 L 1.621094 38.175781 L 0.167969 38.175781 Z M 4.140625 43.472656 L 4.851562 43.472656 L 4.851562 0.890625 L 4.140625 0.890625 L 4.140625 43.472656 " fill-opacity="1" fill-rule="nonzero"/></g><g clip-path="url(#9e4cd77a38)"><path fill="#f49c10" d="M 13.546875 5.398438 L 6.140625 5.398438 L 6.140625 6.847656 L 13.546875 6.847656 Z M 37.839844 11.953125 L 37.839844 13.402344 L 46.894531 13.402344 L 46.894531 11.953125 Z M 26.0625 19.957031 L 33.933594 19.957031 L 33.933594 18.511719 L 26.0625 18.511719 Z M 6.140625 26.511719 L 14.257812 26.511719 L 14.257812 25.066406 L 6.140625 25.066406 Z M 11.332031 38.175781 L 6.140625 38.175781 L 6.140625 39.625 L 11.332031 39.625 Z M 10.746094 4.234375 C 10.808594 4.234375 10.871094 4.210938 10.914062 4.164062 L 13.09375 2 C 13.183594 1.910156 13.183594 1.757812 13.09375 1.667969 C 13 1.574219 12.851562 1.574219 12.757812 1.667969 L 10.582031 3.832031 C 10.488281 3.925781 10.488281 4.074219 10.582031 4.164062 C 10.625 4.210938 10.6875 4.234375 10.746094 4.234375 Z M 8.9375 4.292969 C 8.984375 4.339844 9.046875 4.363281 9.105469 4.363281 C 9.167969 4.363281 9.226562 4.339844 9.273438 4.292969 C 9.367188 4.203125 9.367188 4.054688 9.273438 3.960938 L 8.222656 2.917969 L 9.273438 1.871094 C 9.367188 1.777344 9.367188 1.628906 9.273438 1.539062 C 9.183594 1.445312 9.03125 1.445312 8.9375 1.539062 L 7.71875 2.75 C 7.628906 2.839844 7.628906 2.992188 7.71875 3.082031 Z M 14.796875 1.539062 C 14.707031 1.445312 14.554688 1.445312 14.464844 1.539062 C 14.371094 1.628906 14.371094 1.78125 14.464844 1.871094 L 15.515625 2.914062 L 14.464844 3.960938 C 14.371094 4.054688 14.371094 4.203125 14.464844 4.296875 C 14.511719 4.339844 14.570312 4.363281 14.632812 4.363281 C 14.691406 4.363281 14.753906 4.339844 14.796875 4.296875 L 16.015625 3.082031 C 16.0625 3.039062 16.085938 2.980469 16.085938 2.917969 C 16.085938 2.851562 16.0625 2.792969 16.015625 2.75 Z M 14.800781 40.765625 C 14.707031 40.671875 14.554688 40.671875 14.464844 40.765625 C 14.371094 40.855469 14.371094 41.007812 14.464844 41.097656 L 15.515625 42.144531 L 14.464844 43.1875 C 14.371094 43.28125 14.371094 43.429688 14.464844 43.523438 C 14.511719 43.566406 14.570312 43.589844 14.632812 43.589844 C 14.691406 43.589844 14.753906 43.566406 14.800781 43.523438 L 16.015625 42.308594 C 16.0625 42.265625 16.085938 42.207031 16.085938 42.144531 C 16.085938 42.082031 16.0625 42.019531 16.015625 41.976562 Z M 9.273438 40.765625 C 9.179688 40.671875 9.03125 40.671875 8.9375 40.765625 L 7.71875 41.976562 C 7.628906 42.070312 7.628906 42.21875 7.71875 42.308594 L 8.9375 43.523438 C 8.984375 43.566406 9.046875 43.589844 9.105469 43.589844 C 9.167969 43.589844 9.226562 43.566406 9.273438 43.523438 C 9.367188 43.429688 9.367188 43.28125 9.273438 43.1875 L 8.222656 42.144531 L 9.273438 41.097656 C 9.367188 41.007812 9.367188 40.855469 9.273438 40.765625 Z M 12.757812 40.894531 L 10.582031 43.058594 C 10.488281 43.152344 10.488281 43.300781 10.582031 43.394531 C 10.625 43.4375 10.6875 43.460938 10.746094 43.460938 C 10.808594 43.460938 10.871094 43.4375 10.914062 43.394531 L 13.09375 41.226562 C 13.183594 41.136719 13.183594 40.988281 13.09375 40.894531 C 13 40.800781 12.851562 40.800781 12.757812 40.894531 " fill-opacity="1" fill-rule="nonzero"/></g></g></g></g><path fill="#545454" d="M 188.3125 91.695312 C 186.964844 91.695312 185.695312 92.1875 184.710938 93.101562 C 183.640625 94.09375 183.050781 95.433594 183.050781 96.878906 C 183.050781 98.054688 183.441406 99.160156 184.171875 100.078125 C 185.175781 101.335938 185.707031 102.792969 185.707031 104.289062 L 185.707031 105.203125 C 185.707031 105.355469 185.832031 105.480469 185.988281 105.480469 L 190.648438 105.480469 C 190.789062 105.480469 190.902344 105.367188 190.902344 105.226562 L 190.902344 104.308594 C 190.902344 102.800781 191.4375 101.320312 192.410156 100.132812 C 193.234375 99.128906 193.644531 97.863281 193.566406 96.566406 C 193.414062 94 191.253906 91.863281 188.648438 91.707031 C 188.535156 91.699219 188.421875 91.695312 188.3125 91.695312 Z M 190.648438 106.210938 L 185.988281 106.210938 C 185.421875 106.210938 184.964844 105.757812 184.964844 105.203125 L 184.964844 104.289062 C 184.964844 102.960938 184.488281 101.660156 183.585938 100.53125 C 182.75 99.480469 182.308594 98.21875 182.308594 96.878906 C 182.308594 95.253906 183 93.683594 184.203125 92.570312 C 185.421875 91.441406 187.015625 90.875 188.695312 90.976562 C 191.71875 91.160156 194.128906 93.546875 194.308594 96.523438 C 194.394531 98.003906 193.925781 99.449219 192.988281 100.59375 C 192.121094 101.648438 191.644531 102.96875 191.644531 104.308594 L 191.644531 105.226562 C 191.644531 105.769531 191.199219 106.210938 190.648438 106.210938 " fill-opacity="1" fill-rule="nonzero"/><path fill="#545454" d="M 190.898438 107.175781 L 185.730469 107.175781 C 185.523438 107.175781 185.359375 107.011719 185.359375 106.8125 C 185.359375 106.609375 185.523438 106.445312 185.730469 106.445312 L 190.898438 106.445312 C 191.101562 106.445312 191.269531 106.609375 191.269531 106.8125 C 191.269531 107.011719 191.101562 107.175781 190.898438 107.175781 " fill-opacity="1" fill-rule="nonzero"/><path fill="#545454" d="M 190.898438 108.152344 L 185.730469 108.152344 C 185.523438 108.152344 185.359375 107.988281 185.359375 107.785156 C 185.359375 107.585938 185.523438 107.421875 185.730469 107.421875 L 190.898438 107.421875 C 191.101562 107.421875 191.269531 107.585938 191.269531 107.785156 C 191.269531 107.988281 191.101562 108.152344 190.898438 108.152344 " fill-opacity="1" fill-rule="nonzero"/><path fill="#545454" d="M 190.898438 109.128906 L 185.730469 109.128906 C 185.523438 109.128906 185.359375 108.964844 185.359375 108.761719 C 185.359375 108.558594 185.523438 108.398438 185.730469 108.398438 L 190.898438 108.398438 C 191.101562 108.398438 191.269531 108.558594 191.269531 108.761719 C 191.269531 108.964844 191.101562 109.128906 190.898438 109.128906 " fill-opacity="1" fill-rule="nonzero"/><g clip-path="url(#b9bf8d7031)"><path fill="#545454" d="M 190.25 110.367188 L 186.378906 110.367188 L 186.046875 109.425781 L 190.582031 109.425781 L 190.25 110.367188 " fill-opacity="1" fill-rule="nonzero"/></g><g clip-path="url(#046db557b6)"><path fill="#545454" d="M 188.3125 89.382812 C 188.109375 89.382812 187.941406 89.21875 187.941406 89.019531 L 187.941406 85.234375 C 187.941406 85.03125 188.109375 84.867188 188.3125 84.867188 C 188.519531 84.867188 188.6875 85.03125 188.6875 85.234375 L 188.6875 89.019531 C 188.6875 89.21875 188.519531 89.382812 188.3125 89.382812 " fill-opacity="1" fill-rule="nonzero"/></g><path fill="#545454" d="M 194.347656 91.847656 C 194.253906 91.847656 194.160156 91.8125 194.085938 91.738281 C 193.941406 91.597656 193.941406 91.363281 194.085938 91.222656 L 196.800781 88.546875 C 196.949219 88.402344 197.183594 88.402344 197.328125 88.546875 C 197.472656 88.6875 197.472656 88.921875 197.328125 89.0625 L 194.609375 91.738281 C 194.539062 91.8125 194.445312 91.847656 194.347656 91.847656 " fill-opacity="1" fill-rule="nonzero"/><g clip-path="url(#db78edc6fe)"><path fill="#545454" d="M 200.691406 97.792969 L 196.847656 97.792969 C 196.644531 97.792969 196.476562 97.628906 196.476562 97.425781 C 196.476562 97.226562 196.644531 97.0625 196.847656 97.0625 L 200.691406 97.0625 C 200.894531 97.0625 201.0625 97.226562 201.0625 97.425781 C 201.0625 97.628906 200.894531 97.792969 200.691406 97.792969 " fill-opacity="1" fill-rule="nonzero"/></g><path fill="#545454" d="M 197.066406 106.414062 C 196.96875 106.414062 196.875 106.378906 196.800781 106.308594 L 194.085938 103.632812 C 193.941406 103.488281 193.941406 103.257812 194.085938 103.113281 C 194.230469 102.972656 194.464844 102.972656 194.609375 103.113281 L 197.328125 105.789062 C 197.472656 105.933594 197.472656 106.164062 197.328125 106.308594 C 197.253906 106.378906 197.160156 106.414062 197.066406 106.414062 " fill-opacity="1" fill-rule="nonzero"/><path fill="#545454" d="M 179.5625 106.414062 C 179.46875 106.414062 179.375 106.378906 179.300781 106.308594 C 179.15625 106.164062 179.15625 105.933594 179.300781 105.789062 L 182.019531 103.113281 C 182.164062 102.972656 182.398438 102.972656 182.542969 103.113281 C 182.6875 103.257812 182.6875 103.488281 182.542969 103.632812 L 179.828125 106.308594 C 179.753906 106.378906 179.660156 106.414062 179.5625 106.414062 " fill-opacity="1" fill-rule="nonzero"/><g clip-path="url(#4de6cc7196)"><path fill="#545454" d="M 179.78125 97.792969 L 175.9375 97.792969 C 175.734375 97.792969 175.566406 97.628906 175.566406 97.425781 C 175.566406 97.226562 175.734375 97.0625 175.9375 97.0625 L 179.78125 97.0625 C 179.984375 97.0625 180.152344 97.226562 180.152344 97.425781 C 180.152344 97.628906 179.984375 97.792969 179.78125 97.792969 " fill-opacity="1" fill-rule="nonzero"/></g><path fill="#545454" d="M 182.28125 91.847656 C 182.183594 91.847656 182.089844 91.8125 182.019531 91.738281 L 179.300781 89.0625 C 179.15625 88.921875 179.15625 88.6875 179.300781 88.546875 C 179.445312 88.402344 179.679688 88.402344 179.828125 88.546875 L 182.542969 91.222656 C 182.6875 91.363281 182.6875 91.597656 182.542969 91.738281 C 182.46875 91.8125 182.375 91.847656 182.28125 91.847656 " fill-opacity="1" fill-rule="nonzero"/></svg>