<svg xmlns="http://www.w3.org/2000/svg" xmlns:xlink="http://www.w3.org/1999/xlink" width="80" zoomAndPan="magnify" viewBox="0 0 60 30.000001" height="40" preserveAspectRatio="xMidYMid meet" version="1.0"><defs><g/></defs><g fill="#231f20" fill-opacity="1"><g transform="translate(1.608203, 25.965538)"><g><path d="M 3.140625 -0.671875 L 2.59375 -0.34375 L 2.125 -0.453125 L 0.25 -2.84375 L 0.078125 -3.265625 L 0.25 -3.6875 L 1.984375 -6.21875 L 2.453125 -6.328125 L 3 -5.984375 L 1.34375 -3.265625 Z M 3.140625 -0.671875 "/></g></g></g><g fill="#231f20" fill-opacity="1"><g transform="translate(0.967741, 14.305203)"><g><path d="M 5.1875 -5.765625 L 9.265625 -5.765625 L 9.265625 -0.4375 C 8.609375 -0.226562 7.988281 -0.0820312 7.40625 0 C 6.820312 0.09375 6.222656 0.140625 5.609375 0.140625 C 4.054688 0.140625 2.875 -0.3125 2.0625 -1.21875 C 1.25 -2.132812 0.84375 -3.445312 0.84375 -5.15625 C 0.84375 -6.8125 1.316406 -8.101562 2.265625 -9.03125 C 3.210938 -9.957031 4.523438 -10.421875 6.203125 -10.421875 C 7.253906 -10.421875 8.269531 -10.207031 9.25 -9.78125 L 8.53125 -8.046875 C 7.78125 -8.421875 7 -8.609375 6.1875 -8.609375 C 5.25 -8.609375 4.492188 -8.289062 3.921875 -7.65625 C 3.359375 -7.019531 3.078125 -6.171875 3.078125 -5.109375 C 3.078125 -3.992188 3.304688 -3.140625 3.765625 -2.546875 C 4.222656 -1.960938 4.882812 -1.671875 5.75 -1.671875 C 6.207031 -1.671875 6.671875 -1.71875 7.140625 -1.8125 L 7.140625 -3.953125 L 5.1875 -3.953125 Z M 5.1875 -5.765625 "/></g></g></g><g fill="#231f20" fill-opacity="1"><g transform="translate(11.387696, 14.305203)"><g><path d="M 3.4375 0 L 1.296875 0 L 1.296875 -10.265625 L 7.1875 -10.265625 L 7.1875 -8.484375 L 3.4375 -8.484375 L 3.4375 -5.84375 L 6.921875 -5.84375 L 6.921875 -4.0625 L 3.4375 -4.0625 Z M 3.4375 0 "/></g></g></g><g fill="#231f20" fill-opacity="1"><g transform="translate(5.993241, 24.271911)"><g><path d="M 1.234375 -4.6875 L 1.234375 -2.859375 L 4.09375 -2.859375 L 4.09375 -2.28125 L 1.234375 -2.28125 L 1.234375 0 L 0.640625 0 L 0.640625 -5.25 L 4.4375 -5.25 L 4.4375 -4.6875 Z M 1.234375 -4.6875 "/></g></g></g><g fill="#231f20" fill-opacity="1"><g transform="translate(10.616503, 24.271911)"><g><path d="M 2.609375 -4.03125 L 2.609375 -3.4375 L 2.546875 -3.4375 C 2.109375 -3.4375 1.757812 -3.265625 1.5 -2.921875 C 1.238281 -2.585938 1.109375 -2.195312 1.109375 -1.75 L 1.109375 0 L 0.515625 0 L 0.515625 -3.96875 L 1.109375 -3.96875 L 1.109375 -3 C 1.234375 -3.40625 1.507812 -3.707031 1.9375 -3.90625 C 2.113281 -3.988281 2.328125 -4.03125 2.578125 -4.03125 Z M 2.609375 -4.03125 "/></g></g></g><g fill="#231f20" fill-opacity="1"><g transform="translate(13.352396, 24.271911)"><g><path d="M 2.234375 -4.03125 C 2.828125 -4.03125 3.3125 -3.832031 3.6875 -3.4375 C 4.03125 -3.050781 4.203125 -2.566406 4.203125 -1.984375 C 4.203125 -1.398438 4.03125 -0.914062 3.6875 -0.53125 C 3.3125 -0.132812 2.828125 0.0625 2.234375 0.0625 C 1.640625 0.0625 1.160156 -0.132812 0.796875 -0.53125 C 0.441406 -0.914062 0.265625 -1.398438 0.265625 -1.984375 C 0.265625 -2.566406 0.441406 -3.050781 0.796875 -3.4375 C 1.160156 -3.832031 1.640625 -4.03125 2.234375 -4.03125 Z M 2.234375 -0.46875 C 2.660156 -0.46875 3 -0.617188 3.25 -0.921875 C 3.488281 -1.203125 3.609375 -1.554688 3.609375 -1.984375 C 3.609375 -2.410156 3.488281 -2.765625 3.25 -3.046875 C 3 -3.347656 2.660156 -3.5 2.234375 -3.5 C 1.804688 -3.5 1.46875 -3.347656 1.21875 -3.046875 C 0.976562 -2.765625 0.859375 -2.410156 0.859375 -1.984375 C 0.859375 -1.554688 0.976562 -1.203125 1.21875 -0.921875 C 1.46875 -0.617188 1.804688 -0.46875 2.234375 -0.46875 Z M 2.234375 -0.46875 "/></g></g></g><g fill="#231f20" fill-opacity="1"><g transform="translate(17.824988, 24.271911)"><g><path d="M 1.109375 -3.96875 L 1.109375 -3.34375 C 1.253906 -3.539062 1.425781 -3.703125 1.625 -3.828125 C 1.832031 -3.960938 2.066406 -4.03125 2.328125 -4.03125 C 2.597656 -4.03125 2.828125 -3.992188 3.015625 -3.921875 C 3.210938 -3.847656 3.382812 -3.738281 3.53125 -3.59375 C 3.851562 -3.269531 4.015625 -2.84375 4.015625 -2.3125 L 4.015625 0 L 3.421875 0 L 3.421875 -2.296875 C 3.421875 -2.660156 3.316406 -2.953125 3.109375 -3.171875 C 2.898438 -3.390625 2.632812 -3.5 2.3125 -3.5 C 1.976562 -3.5 1.691406 -3.382812 1.453125 -3.15625 C 1.222656 -2.925781 1.109375 -2.632812 1.109375 -2.28125 L 1.109375 0 L 0.515625 0 L 0.515625 -3.96875 Z M 1.109375 -3.96875 "/></g></g></g><g fill="#231f20" fill-opacity="1"><g transform="translate(22.313441, 24.271911)"><g><path d="M 0.9375 0 L 0.9375 -3.4375 L 0.140625 -3.4375 L 0.140625 -3.96875 L 0.9375 -3.96875 L 0.9375 -5.390625 L 1.546875 -5.390625 L 1.546875 -3.96875 L 2.453125 -3.96875 L 2.453125 -3.4375 L 1.546875 -3.4375 L 1.546875 0 Z M 0.9375 0 "/></g></g></g><g fill="#231f20" fill-opacity="1"><g transform="translate(24.898665, 24.271911)"><g><path d="M 2.28125 -0.46875 C 2.820312 -0.46875 3.207031 -0.691406 3.4375 -1.140625 L 4.09375 -1.140625 C 3.945312 -0.785156 3.722656 -0.492188 3.421875 -0.265625 C 3.128906 -0.046875 2.75 0.0625 2.28125 0.0625 C 1.675781 0.0625 1.1875 -0.132812 0.8125 -0.53125 C 0.445312 -0.914062 0.265625 -1.398438 0.265625 -1.984375 C 0.265625 -2.566406 0.441406 -3.050781 0.796875 -3.4375 C 1.160156 -3.832031 1.640625 -4.03125 2.234375 -4.03125 C 2.828125 -4.03125 3.3125 -3.832031 3.6875 -3.4375 C 4.03125 -3.050781 4.203125 -2.566406 4.203125 -1.984375 L 4.203125 -1.75 L 0.875 -1.75 C 0.914062 -1.382812 1.0625 -1.082031 1.3125 -0.84375 C 1.570312 -0.59375 1.894531 -0.46875 2.28125 -0.46875 Z M 2.234375 -3.5 C 1.867188 -3.5 1.5625 -3.382812 1.3125 -3.15625 C 1.082031 -2.9375 0.941406 -2.648438 0.890625 -2.296875 L 3.59375 -2.296875 C 3.539062 -2.648438 3.394531 -2.9375 3.15625 -3.15625 C 2.90625 -3.382812 2.597656 -3.5 2.234375 -3.5 Z M 2.234375 -3.5 "/></g></g></g><g fill="#231f20" fill-opacity="1"><g transform="translate(29.315747, 24.271911)"><g><path d="M 1.109375 -3.96875 L 1.109375 -3.34375 C 1.253906 -3.539062 1.425781 -3.703125 1.625 -3.828125 C 1.832031 -3.960938 2.066406 -4.03125 2.328125 -4.03125 C 2.597656 -4.03125 2.828125 -3.992188 3.015625 -3.921875 C 3.210938 -3.847656 3.382812 -3.738281 3.53125 -3.59375 C 3.851562 -3.269531 4.015625 -2.84375 4.015625 -2.3125 L 4.015625 0 L 3.421875 0 L 3.421875 -2.296875 C 3.421875 -2.660156 3.316406 -2.953125 3.109375 -3.171875 C 2.898438 -3.390625 2.632812 -3.5 2.3125 -3.5 C 1.976562 -3.5 1.691406 -3.382812 1.453125 -3.15625 C 1.222656 -2.925781 1.109375 -2.632812 1.109375 -2.28125 L 1.109375 0 L 0.515625 0 L 0.515625 -3.96875 Z M 1.109375 -3.96875 "/></g></g></g><g fill="#231f20" fill-opacity="1"><g transform="translate(33.804201, 24.271911)"><g><path d="M 3.609375 -0.640625 C 3.296875 -0.171875 2.820312 0.0625 2.1875 0.0625 C 1.613281 0.0625 1.148438 -0.132812 0.796875 -0.53125 C 0.441406 -0.925781 0.265625 -1.410156 0.265625 -1.984375 C 0.265625 -2.554688 0.441406 -3.039062 0.796875 -3.4375 C 1.148438 -3.832031 1.625 -4.03125 2.21875 -4.03125 C 2.820312 -4.03125 3.285156 -3.796875 3.609375 -3.328125 L 3.609375 -5.5625 L 4.203125 -5.5625 L 4.203125 0 L 3.609375 0 Z M 2.265625 -0.46875 C 2.691406 -0.46875 3.03125 -0.617188 3.28125 -0.921875 C 3.519531 -1.203125 3.640625 -1.554688 3.640625 -1.984375 C 3.640625 -2.410156 3.519531 -2.765625 3.28125 -3.046875 C 3.03125 -3.347656 2.691406 -3.5 2.265625 -3.5 C 1.847656 -3.5 1.503906 -3.347656 1.234375 -3.046875 C 0.984375 -2.765625 0.859375 -2.410156 0.859375 -1.984375 C 0.859375 -1.554688 0.984375 -1.203125 1.234375 -0.921875 C 1.503906 -0.617188 1.847656 -0.46875 2.265625 -0.46875 Z M 2.265625 -0.46875 "/></g></g></g><g fill="#231f20" fill-opacity="1"><g transform="translate(38.522621, 24.271911)"><g/></g></g><g fill="#231f20" fill-opacity="1"><g transform="translate(40.211735, 24.271911)"><g><path d="M 3.609375 -0.640625 C 3.296875 -0.171875 2.820312 0.0625 2.1875 0.0625 C 1.613281 0.0625 1.148438 -0.132812 0.796875 -0.53125 C 0.441406 -0.925781 0.265625 -1.410156 0.265625 -1.984375 C 0.265625 -2.554688 0.441406 -3.039062 0.796875 -3.4375 C 1.148438 -3.832031 1.625 -4.03125 2.21875 -4.03125 C 2.820312 -4.03125 3.285156 -3.796875 3.609375 -3.328125 L 3.609375 -5.5625 L 4.203125 -5.5625 L 4.203125 0 L 3.609375 0 Z M 2.265625 -0.46875 C 2.691406 -0.46875 3.03125 -0.617188 3.28125 -0.921875 C 3.519531 -1.203125 3.640625 -1.554688 3.640625 -1.984375 C 3.640625 -2.410156 3.519531 -2.765625 3.28125 -3.046875 C 3.03125 -3.347656 2.691406 -3.5 2.265625 -3.5 C 1.847656 -3.5 1.503906 -3.347656 1.234375 -3.046875 C 0.984375 -2.765625 0.859375 -2.410156 0.859375 -1.984375 C 0.859375 -1.554688 0.984375 -1.203125 1.234375 -0.921875 C 1.503906 -0.617188 1.847656 -0.46875 2.265625 -0.46875 Z M 2.265625 -0.46875 "/></g></g></g><g fill="#231f20" fill-opacity="1"><g transform="translate(44.930156, 24.271911)"><g><path d="M 2.28125 -0.46875 C 2.820312 -0.46875 3.207031 -0.691406 3.4375 -1.140625 L 4.09375 -1.140625 C 3.945312 -0.785156 3.722656 -0.492188 3.421875 -0.265625 C 3.128906 -0.046875 2.75 0.0625 2.28125 0.0625 C 1.675781 0.0625 1.1875 -0.132812 0.8125 -0.53125 C 0.445312 -0.914062 0.265625 -1.398438 0.265625 -1.984375 C 0.265625 -2.566406 0.441406 -3.050781 0.796875 -3.4375 C 1.160156 -3.832031 1.640625 -4.03125 2.234375 -4.03125 C 2.828125 -4.03125 3.3125 -3.832031 3.6875 -3.4375 C 4.03125 -3.050781 4.203125 -2.566406 4.203125 -1.984375 L 4.203125 -1.75 L 0.875 -1.75 C 0.914062 -1.382812 1.0625 -1.082031 1.3125 -0.84375 C 1.570312 -0.59375 1.894531 -0.46875 2.28125 -0.46875 Z M 2.234375 -3.5 C 1.867188 -3.5 1.5625 -3.382812 1.3125 -3.15625 C 1.082031 -2.9375 0.941406 -2.648438 0.890625 -2.296875 L 3.59375 -2.296875 C 3.539062 -2.648438 3.394531 -2.9375 3.15625 -3.15625 C 2.90625 -3.382812 2.597656 -3.5 2.234375 -3.5 Z M 2.234375 -3.5 "/></g></g></g><g fill="#231f20" fill-opacity="1"><g transform="translate(49.347237, 24.271911)"><g><path d="M 3.84375 -3.96875 L 2.296875 0 L 1.59375 0 L 0.046875 -3.96875 L 0.6875 -3.96875 L 1.9375 -0.640625 L 3.1875 -3.96875 Z M 3.84375 -3.96875 "/></g></g></g><g fill="#7ed957" fill-opacity="1"><g transform="translate(58.151214, 19.226183)"><g><path d="M -3.640625 0.78125 L -3 0.390625 L -2.453125 0.53125 L -0.28125 3.296875 L -0.09375 3.78125 L -0.28125 4.265625 L -2.296875 7.203125 L -2.84375 7.328125 L -3.46875 6.9375 L -1.546875 3.78125 Z M -3.640625 0.78125 "/></g></g></g></svg>