<svg xmlns="http://www.w3.org/2000/svg" xmlns:xlink="http://www.w3.org/1999/xlink" width="180" zoomAndPan="magnify" viewBox="0 0 135 37.5" height="50" preserveAspectRatio="xMidYMid meet" version="1.0"><defs><g/><clipPath id="80b8802b84"><path d="M 16.929688 24.472656 L 33.0625 24.472656 L 33.0625 27.148438 L 16.929688 27.148438 Z M 16.929688 24.472656 " clip-rule="nonzero"/></clipPath><clipPath id="92efba61e8"><path d="M 29.757812 17.179688 L 35.046875 17.179688 L 35.046875 23.601562 L 29.757812 23.601562 Z M 29.757812 17.179688 " clip-rule="nonzero"/></clipPath><clipPath id="b3923087fa"><path d="M 23 9.042969 L 27 9.042969 L 27 16 L 23 16 Z M 23 9.042969 " clip-rule="nonzero"/></clipPath></defs><path stroke-linecap="round" transform="matrix(0.00429031, 0, 0, -0.00434088, 16.930849, 27.148575)" fill="none" stroke-linejoin="round" d="M 1074.099249 530.958327 C 208.229919 1096.080155 161.795286 2526.882235 161.795286 2526.882235 L 3588.853288 2526.882235 C 3588.853288 2526.882235 3542.418655 1096.080155 2676.549324 530.958327 " stroke="#222222" stroke-width="156.774994" stroke-opacity="1" stroke-miterlimit="10"/><g clip-path="url(#80b8802b84)"><path stroke-linecap="round" transform="matrix(0.00429031, 0, 0, -0.00434088, 16.930849, 27.148575)" fill="none" stroke-linejoin="round" d="M 3671.70724 530.958299 L 78.03085 530.958299 C 392.147484 240.298521 804.596282 78.320936 1233.433774 78.320936 C 1626.762429 78.320936 2123.886145 78.320936 2517.2148 78.320936 C 2945.141809 78.320936 3357.590606 240.298521 3671.70724 530.958299 Z M 3671.70724 530.958299 " stroke="#222222" stroke-width="156.774994" stroke-opacity="1" stroke-miterlimit="10"/></g><g clip-path="url(#92efba61e8)"><path stroke-linecap="round" transform="matrix(0.00429031, 0, 0, -0.00434088, 16.930849, 27.148575)" fill="none" stroke-linejoin="round" d="M 3556.986383 2213.725432 C 4116.933426 2247.020825 4269.89457 1809.681345 4044.094786 1528.920198 C 3941.210208 1400.238005 3799.17486 1355.244231 3671.70724 1250.858677 C 3423.145382 1046.586944 3485.968709 854.013593 3073.519911 913.405374 " stroke="#222222" stroke-width="156.774994" stroke-opacity="1" stroke-miterlimit="10"/></g><g clip-path="url(#b3923087fa)"><path stroke-linecap="round" transform="matrix(0.00429031, 0, 0, -0.00434088, 16.930849, 27.148575)" fill="none" stroke-linejoin="round" d="M 1806.127579 4078.267634 C 1431.008584 3526.643939 2412.509255 3446.555018 1888.071049 2867.035182 " stroke="#222222" stroke-width="156.774994" stroke-opacity="1" stroke-miterlimit="10"/></g><path stroke-linecap="round" transform="matrix(0.00429031, 0, 0, -0.00434088, 16.930849, 27.148575)" fill="none" stroke-linejoin="round" d="M 1153.31127 3802.005849 C 854.672847 3375.464852 1635.867259 3314.273316 1217.955563 2867.035182 " stroke="#222222" stroke-width="156.774994" stroke-opacity="1" stroke-miterlimit="10"/><path stroke-linecap="round" transform="matrix(0.00429031, 0, 0, -0.00434088, 16.930849, 27.148575)" fill="none" stroke-linejoin="round" d="M 2499.00514 3821.80311 C 2201.2772 3396.161989 2982.471612 3334.070578 2564.559916 2886.832443 " stroke="#222222" stroke-width="156.774994" stroke-opacity="1" stroke-miterlimit="10"/><g fill="#231f20" fill-opacity="1"><g transform="translate(51.245389, 17.861655)"><g><path d="M 4.65625 0.109375 C 3.851562 0.109375 3.132812 -0.0703125 2.5 -0.4375 C 1.863281 -0.8125 1.363281 -1.320312 1 -1.96875 C 0.644531 -2.613281 0.46875 -3.335938 0.46875 -4.140625 C 0.46875 -4.921875 0.648438 -5.625 1.015625 -6.25 C 1.378906 -6.875 1.878906 -7.363281 2.515625 -7.71875 C 3.160156 -8.070312 3.882812 -8.25 4.6875 -8.25 C 5.125 -8.25 5.515625 -8.207031 5.859375 -8.125 C 6.210938 -8.050781 6.5 -7.960938 6.71875 -7.859375 C 6.945312 -7.765625 7.097656 -7.679688 7.171875 -7.609375 L 6.6875 -6.578125 C 6.226562 -6.941406 5.554688 -7.125 4.671875 -7.125 C 4.078125 -7.125 3.5625 -6.992188 3.125 -6.734375 C 2.695312 -6.472656 2.367188 -6.117188 2.140625 -5.671875 C 1.910156 -5.234375 1.796875 -4.742188 1.796875 -4.203125 C 1.796875 -3.585938 1.914062 -3.035156 2.15625 -2.546875 C 2.40625 -2.054688 2.75 -1.675781 3.1875 -1.40625 C 3.625 -1.132812 4.117188 -1 4.671875 -1 C 5.023438 -1 5.359375 -1.039062 5.671875 -1.125 C 5.992188 -1.21875 6.265625 -1.351562 6.484375 -1.53125 L 6.484375 -3.109375 L 4.8125 -3.109375 L 4.8125 -4.25 L 7.703125 -4.25 L 7.703125 -1.0625 C 7.441406 -0.726562 7.039062 -0.445312 6.5 -0.21875 C 5.96875 0 5.351562 0.109375 4.65625 0.109375 Z M 4.65625 0.109375 "/></g></g></g><g fill="#231f20" fill-opacity="1"><g transform="translate(59.477205, 17.861655)"><g><path d="M 1.609375 0.109375 C 1.378906 0.109375 1.1875 0.0351562 1.03125 -0.109375 C 0.882812 -0.265625 0.8125 -0.453125 0.8125 -0.671875 C 0.8125 -0.898438 0.882812 -1.085938 1.03125 -1.234375 C 1.1875 -1.390625 1.378906 -1.46875 1.609375 -1.46875 C 1.835938 -1.46875 2.023438 -1.390625 2.171875 -1.234375 C 2.328125 -1.085938 2.40625 -0.898438 2.40625 -0.671875 C 2.40625 -0.453125 2.328125 -0.265625 2.171875 -0.109375 C 2.023438 0.0351562 1.835938 0.109375 1.609375 0.109375 Z M 1.609375 0.109375 "/></g></g></g><g fill="#231f20" fill-opacity="1"><g transform="translate(62.696905, 17.861655)"><g><path d="M 0.859375 -8.125 L 4.671875 -8.125 L 4.671875 -7.0625 L 2.078125 -7.0625 L 2.078125 -4.75 L 4.09375 -4.75 L 4.09375 -3.671875 L 2.078125 -3.671875 L 2.078125 0 L 0.859375 0 Z M 0.859375 -8.125 "/></g></g></g><g fill="#231f20" fill-opacity="1"><g transform="translate(67.863918, 17.861655)"><g><path d="M 1.609375 0.109375 C 1.378906 0.109375 1.1875 0.0351562 1.03125 -0.109375 C 0.882812 -0.265625 0.8125 -0.453125 0.8125 -0.671875 C 0.8125 -0.898438 0.882812 -1.085938 1.03125 -1.234375 C 1.1875 -1.390625 1.378906 -1.46875 1.609375 -1.46875 C 1.835938 -1.46875 2.023438 -1.390625 2.171875 -1.234375 C 2.328125 -1.085938 2.40625 -0.898438 2.40625 -0.671875 C 2.40625 -0.453125 2.328125 -0.265625 2.171875 -0.109375 C 2.023438 0.0351562 1.835938 0.109375 1.609375 0.109375 Z M 1.609375 0.109375 "/></g></g></g><g fill="#231f20" fill-opacity="1"><g transform="translate(51.245389, 27.675548)"><g><path d="M 0.859375 -8.125 L 4.671875 -8.125 L 4.671875 -7.0625 L 2.078125 -7.0625 L 2.078125 -4.75 L 4.09375 -4.75 L 4.09375 -3.671875 L 2.078125 -3.671875 L 2.078125 0 L 0.859375 0 Z M 0.859375 -8.125 "/></g></g></g><g fill="#231f20" fill-opacity="1"><g transform="translate(56.412402, 27.675548)"><g><path d="M 0.75 -5.078125 L 1.953125 -5.078125 L 1.953125 -4.078125 C 2.066406 -4.421875 2.253906 -4.691406 2.515625 -4.890625 C 2.785156 -5.097656 3.085938 -5.203125 3.421875 -5.203125 C 3.660156 -5.203125 3.828125 -5.179688 3.921875 -5.140625 L 3.75 -3.9375 C 3.6875 -3.976562 3.539062 -4 3.3125 -4 C 2.96875 -4 2.65625 -3.890625 2.375 -3.671875 C 2.09375 -3.453125 1.953125 -3.097656 1.953125 -2.609375 L 1.953125 0 L 0.75 0 Z M 0.75 -5.078125 "/></g></g></g><g fill="#231f20" fill-opacity="1"><g transform="translate(60.384471, 27.675548)"><g><path d="M 3.15625 0.109375 C 2.632812 0.109375 2.171875 -0.00390625 1.765625 -0.234375 C 1.359375 -0.472656 1.039062 -0.796875 0.8125 -1.203125 C 0.59375 -1.609375 0.484375 -2.0625 0.484375 -2.5625 C 0.484375 -3.039062 0.59375 -3.484375 0.8125 -3.890625 C 1.03125 -4.296875 1.34375 -4.613281 1.75 -4.84375 C 2.15625 -5.082031 2.625 -5.203125 3.15625 -5.203125 C 3.6875 -5.203125 4.148438 -5.082031 4.546875 -4.84375 C 4.953125 -4.613281 5.265625 -4.296875 5.484375 -3.890625 C 5.703125 -3.484375 5.8125 -3.039062 5.8125 -2.5625 C 5.8125 -2.0625 5.695312 -1.609375 5.46875 -1.203125 C 5.25 -0.796875 4.9375 -0.472656 4.53125 -0.234375 C 4.132812 -0.00390625 3.675781 0.109375 3.15625 0.109375 Z M 3.1875 -0.859375 C 3.613281 -0.859375 3.945312 -1.015625 4.1875 -1.328125 C 4.4375 -1.648438 4.5625 -2.050781 4.5625 -2.53125 C 4.5625 -3.007812 4.425781 -3.410156 4.15625 -3.734375 C 3.894531 -4.066406 3.550781 -4.234375 3.125 -4.234375 C 2.695312 -4.234375 2.351562 -4.070312 2.09375 -3.75 C 1.84375 -3.425781 1.71875 -3.019531 1.71875 -2.53125 C 1.71875 -2.0625 1.851562 -1.664062 2.125 -1.34375 C 2.40625 -1.019531 2.757812 -0.859375 3.1875 -0.859375 Z M 3.1875 -0.859375 "/></g></g></g><g fill="#231f20" fill-opacity="1"><g transform="translate(66.680033, 27.675548)"><g><path d="M 0.78125 -5.078125 L 1.953125 -5.078125 L 1.96875 -4.140625 C 2.101562 -4.453125 2.320312 -4.707031 2.625 -4.90625 C 2.9375 -5.101562 3.289062 -5.203125 3.6875 -5.203125 C 4.21875 -5.203125 4.625 -5.09375 4.90625 -4.875 C 5.1875 -4.664062 5.375 -4.363281 5.46875 -3.96875 C 5.5625 -3.582031 5.609375 -3.070312 5.609375 -2.4375 L 5.609375 0 L 4.40625 0 L 4.40625 -2.40625 C 4.40625 -3.050781 4.34375 -3.515625 4.21875 -3.796875 C 4.09375 -4.078125 3.835938 -4.21875 3.453125 -4.21875 C 3.234375 -4.21875 3.007812 -4.148438 2.78125 -4.015625 C 2.550781 -3.878906 2.359375 -3.679688 2.203125 -3.421875 C 2.054688 -3.171875 1.984375 -2.867188 1.984375 -2.515625 L 1.984375 0 L 0.78125 0 Z M 0.78125 -5.078125 "/></g></g></g><g fill="#231f20" fill-opacity="1"><g transform="translate(73.041978, 27.675548)"><g><path d="M 1.234375 -4.109375 L 0.328125 -4.109375 L 0.328125 -5.078125 L 1.234375 -5.078125 L 1.234375 -7.140625 L 2.4375 -7.40625 L 2.4375 -5.078125 L 3.609375 -5.078125 L 3.609375 -4.109375 L 2.4375 -4.109375 L 2.4375 0 L 1.234375 0 Z M 1.234375 -4.109375 "/></g></g></g><g fill="#231f20" fill-opacity="1"><g transform="translate(76.837022, 27.675548)"><g><path d="M 1.21875 -3.3125 L 5.015625 -3.3125 L 5.015625 -2.25 L 1.21875 -2.25 Z M 1.21875 -3.3125 "/></g></g></g><g fill="#231f20" fill-opacity="1"><g transform="translate(83.066199, 27.675548)"><g><path d="M 3.1875 0.109375 C 2.582031 0.109375 2.078125 -0.0078125 1.671875 -0.25 C 1.265625 -0.488281 0.960938 -0.804688 0.765625 -1.203125 C 0.578125 -1.609375 0.484375 -2.050781 0.484375 -2.53125 C 0.484375 -3.070312 0.59375 -3.546875 0.8125 -3.953125 C 1.039062 -4.359375 1.351562 -4.664062 1.75 -4.875 C 2.15625 -5.09375 2.609375 -5.203125 3.109375 -5.203125 C 3.890625 -5.203125 4.46875 -4.988281 4.84375 -4.5625 C 5.226562 -4.132812 5.421875 -3.53125 5.421875 -2.75 C 5.421875 -2.539062 5.410156 -2.332031 5.390625 -2.125 L 1.734375 -2.125 C 1.816406 -1.675781 1.976562 -1.351562 2.21875 -1.15625 C 2.457031 -0.957031 2.789062 -0.859375 3.21875 -0.859375 C 3.570312 -0.859375 3.863281 -0.882812 4.09375 -0.9375 C 4.320312 -1 4.53125 -1.082031 4.71875 -1.1875 L 5.09375 -0.328125 C 4.90625 -0.210938 4.648438 -0.109375 4.328125 -0.015625 C 4.015625 0.0664062 3.632812 0.109375 3.1875 0.109375 Z M 4.265625 -2.953125 C 4.265625 -3.410156 4.160156 -3.734375 3.953125 -3.921875 C 3.753906 -4.109375 3.460938 -4.203125 3.078125 -4.203125 C 2.296875 -4.203125 1.847656 -3.785156 1.734375 -2.953125 Z M 4.265625 -2.953125 "/></g></g></g><g fill="#231f20" fill-opacity="1"><g transform="translate(88.952383, 27.675548)"><g><path d="M 0.78125 -5.078125 L 1.953125 -5.078125 L 1.96875 -4.140625 C 2.101562 -4.453125 2.320312 -4.707031 2.625 -4.90625 C 2.9375 -5.101562 3.289062 -5.203125 3.6875 -5.203125 C 4.21875 -5.203125 4.625 -5.09375 4.90625 -4.875 C 5.1875 -4.664062 5.375 -4.363281 5.46875 -3.96875 C 5.5625 -3.582031 5.609375 -3.070312 5.609375 -2.4375 L 5.609375 0 L 4.40625 0 L 4.40625 -2.40625 C 4.40625 -3.050781 4.34375 -3.515625 4.21875 -3.796875 C 4.09375 -4.078125 3.835938 -4.21875 3.453125 -4.21875 C 3.234375 -4.21875 3.007812 -4.148438 2.78125 -4.015625 C 2.550781 -3.878906 2.359375 -3.679688 2.203125 -3.421875 C 2.054688 -3.171875 1.984375 -2.867188 1.984375 -2.515625 L 1.984375 0 L 0.78125 0 Z M 0.78125 -5.078125 "/></g></g></g><g fill="#231f20" fill-opacity="1"><g transform="translate(95.314329, 27.675548)"><g><path d="M 3.03125 0.109375 C 2.570312 0.109375 2.148438 0 1.765625 -0.21875 C 1.378906 -0.4375 1.066406 -0.742188 0.828125 -1.140625 C 0.597656 -1.546875 0.484375 -2.019531 0.484375 -2.5625 C 0.484375 -3.363281 0.707031 -4.003906 1.15625 -4.484375 C 1.613281 -4.960938 2.222656 -5.203125 2.984375 -5.203125 C 3.410156 -5.203125 3.800781 -5.097656 4.15625 -4.890625 C 4.507812 -4.679688 4.75 -4.429688 4.875 -4.140625 L 4.828125 -5 L 4.828125 -8.125 L 6 -8.125 L 6 0 L 4.859375 0 L 4.828125 -0.890625 C 4.703125 -0.628906 4.472656 -0.394531 4.140625 -0.1875 C 3.816406 0.0078125 3.445312 0.109375 3.03125 0.109375 Z M 3.234375 -0.890625 C 3.648438 -0.890625 4 -1.035156 4.28125 -1.328125 C 4.570312 -1.617188 4.71875 -2.003906 4.71875 -2.484375 L 4.71875 -2.5625 C 4.71875 -2.875 4.648438 -3.15625 4.515625 -3.40625 C 4.390625 -3.65625 4.210938 -3.847656 3.984375 -3.984375 C 3.753906 -4.128906 3.503906 -4.203125 3.234375 -4.203125 C 2.753906 -4.203125 2.382812 -4.046875 2.125 -3.734375 C 1.875 -3.429688 1.75 -3.039062 1.75 -2.5625 C 1.75 -2.0625 1.875 -1.65625 2.125 -1.34375 C 2.382812 -1.039062 2.753906 -0.890625 3.234375 -0.890625 Z M 3.234375 -0.890625 "/></g></g></g><g fill="#231f20" fill-opacity="1"><g transform="translate(102.107791, 27.675548)"><g/></g></g><g fill="#231f20" fill-opacity="1"><g transform="translate(104.818531, 27.675548)"><g><path d="M 0.859375 -8.125 L 2.828125 -8.125 C 4.460938 -8.125 5.601562 -7.738281 6.25 -6.96875 C 6.90625 -6.195312 7.234375 -5.273438 7.234375 -4.203125 C 7.234375 -3.460938 7.09375 -2.773438 6.8125 -2.140625 C 6.53125 -1.503906 6.066406 -0.988281 5.421875 -0.59375 C 4.773438 -0.195312 3.929688 0 2.890625 0 L 0.859375 0 Z M 3.015625 -1.09375 C 4.035156 -1.09375 4.773438 -1.378906 5.234375 -1.953125 C 5.691406 -2.535156 5.921875 -3.265625 5.921875 -4.140625 C 5.921875 -5.003906 5.6875 -5.703125 5.21875 -6.234375 C 4.757812 -6.773438 4.023438 -7.046875 3.015625 -7.046875 L 2.109375 -7.046875 L 2.109375 -1.09375 Z M 3.015625 -1.09375 "/></g></g></g><g fill="#231f20" fill-opacity="1"><g transform="translate(112.430747, 27.675548)"><g><path d="M 0.859375 -8.125 L 4.40625 -8.125 L 4.40625 -7.046875 L 2.078125 -7.046875 L 2.078125 -4.796875 L 3.953125 -4.796875 L 3.953125 -3.6875 L 2.078125 -3.6875 L 2.078125 -1.09375 L 4.78125 -1.09375 L 4.78125 0 L 0.859375 0 Z M 0.859375 -8.125 "/></g></g></g><g fill="#231f20" fill-opacity="1"><g transform="translate(117.59776, 27.675548)"><g><path d="M -0.171875 -8.125 L 1.234375 -8.125 L 3.65625 -2.546875 L 6.109375 -8.125 L 7.5 -8.125 L 3.75 0 L 3.578125 0 Z M -0.171875 -8.125 "/></g></g></g><g fill="#7ed957" fill-opacity="1"><g transform="translate(3.663651, 28.700638)"><g><path d="M 10.96875 -2.375 L 9.046875 -1.203125 L 7.421875 -1.59375 L 0.875 -9.9375 L 0.265625 -11.40625 L 0.875 -12.890625 L 6.9375 -21.71875 L 8.5625 -22.109375 L 10.484375 -20.9375 L 4.6875 -11.40625 Z M 10.96875 -2.375 "/></g></g></g><g fill="#7ed957" fill-opacity="1"><g transform="translate(48.412869, 8.311272)"><g><path d="M -10.96875 2.375 L -9.046875 1.203125 L -7.421875 1.59375 L -0.875 9.9375 L -0.265625 11.40625 L -0.875 12.890625 L -6.9375 21.71875 L -8.5625 22.109375 L -10.484375 20.9375 L -4.6875 11.40625 Z M -10.96875 2.375 "/></g></g></g></svg>