<svg xmlns="http://www.w3.org/2000/svg" xmlns:xlink="http://www.w3.org/1999/xlink" width="150" zoomAndPan="magnify" viewBox="0 0 112.5 74.999997" height="100" preserveAspectRatio="xMidYMid meet" version="1.0"><defs><g/><clipPath id="a59d98cef4"><path d="M 33.925781 41.523438 L 73.992188 41.523438 L 73.992188 48.0625 L 33.925781 48.0625 Z M 33.925781 41.523438 " clip-rule="nonzero"/></clipPath><clipPath id="1719fad2a3"><path d="M 65.789062 23.71875 L 78.925781 23.71875 L 78.925781 39.40625 L 65.789062 39.40625 Z M 65.789062 23.71875 " clip-rule="nonzero"/></clipPath><clipPath id="0a53cecc37"><path d="M 5 0.164062 L 32 0.164062 L 32 52 L 5 52 Z M 5 0.164062 " clip-rule="nonzero"/></clipPath></defs><g fill="#231f20" fill-opacity="1"><g transform="translate(1.426342, 69.252393)"><g><path d="M 4.921875 0.109375 C 4.066406 0.109375 3.304688 -0.0820312 2.640625 -0.46875 C 1.972656 -0.851562 1.445312 -1.382812 1.0625 -2.0625 C 0.6875 -2.75 0.5 -3.519531 0.5 -4.375 C 0.5 -5.195312 0.6875 -5.9375 1.0625 -6.59375 C 1.445312 -7.257812 1.976562 -7.78125 2.65625 -8.15625 C 3.34375 -8.53125 4.109375 -8.71875 4.953125 -8.71875 C 5.410156 -8.71875 5.820312 -8.675781 6.1875 -8.59375 C 6.5625 -8.507812 6.863281 -8.414062 7.09375 -8.3125 C 7.332031 -8.207031 7.492188 -8.117188 7.578125 -8.046875 L 7.078125 -6.9375 C 6.585938 -7.332031 5.875 -7.53125 4.9375 -7.53125 C 4.3125 -7.53125 3.769531 -7.390625 3.3125 -7.109375 C 2.851562 -6.835938 2.5 -6.46875 2.25 -6 C 2.007812 -5.539062 1.890625 -5.019531 1.890625 -4.4375 C 1.890625 -3.78125 2.019531 -3.195312 2.28125 -2.6875 C 2.539062 -2.175781 2.898438 -1.773438 3.359375 -1.484375 C 3.828125 -1.203125 4.351562 -1.0625 4.9375 -1.0625 C 5.3125 -1.0625 5.664062 -1.101562 6 -1.1875 C 6.332031 -1.28125 6.613281 -1.425781 6.84375 -1.625 L 6.84375 -3.28125 L 5.078125 -3.28125 L 5.078125 -4.484375 L 8.140625 -4.484375 L 8.140625 -1.125 C 7.859375 -0.769531 7.4375 -0.472656 6.875 -0.234375 C 6.3125 -0.00390625 5.660156 0.109375 4.921875 0.109375 Z M 4.921875 0.109375 "/></g></g></g><g fill="#231f20" fill-opacity="1"><g transform="translate(10.119017, 69.252393)"><g><path d="M 1.6875 0.109375 C 1.457031 0.109375 1.257812 0.03125 1.09375 -0.125 C 0.9375 -0.28125 0.859375 -0.476562 0.859375 -0.71875 C 0.859375 -0.957031 0.9375 -1.15625 1.09375 -1.3125 C 1.25 -1.46875 1.445312 -1.546875 1.6875 -1.546875 C 1.9375 -1.546875 2.140625 -1.46875 2.296875 -1.3125 C 2.453125 -1.15625 2.53125 -0.957031 2.53125 -0.71875 C 2.53125 -0.476562 2.453125 -0.28125 2.296875 -0.125 C 2.140625 0.03125 1.9375 0.109375 1.6875 0.109375 Z M 1.6875 0.109375 "/></g></g></g><g fill="#231f20" fill-opacity="1"><g transform="translate(13.518976, 69.252393)"><g><path d="M 0.90625 -8.59375 L 4.9375 -8.59375 L 4.9375 -7.453125 L 2.203125 -7.453125 L 2.203125 -5.03125 L 4.328125 -5.03125 L 4.328125 -3.875 L 2.203125 -3.875 L 2.203125 0 L 0.90625 0 Z M 0.90625 -8.59375 "/></g></g></g><g fill="#231f20" fill-opacity="1"><g transform="translate(18.975258, 69.252393)"><g><path d="M 1.6875 0.109375 C 1.457031 0.109375 1.257812 0.03125 1.09375 -0.125 C 0.9375 -0.28125 0.859375 -0.476562 0.859375 -0.71875 C 0.859375 -0.957031 0.9375 -1.15625 1.09375 -1.3125 C 1.25 -1.46875 1.445312 -1.546875 1.6875 -1.546875 C 1.9375 -1.546875 2.140625 -1.46875 2.296875 -1.3125 C 2.453125 -1.15625 2.53125 -0.957031 2.53125 -0.71875 C 2.53125 -0.476562 2.453125 -0.28125 2.296875 -0.125 C 2.140625 0.03125 1.9375 0.109375 1.6875 0.109375 Z M 1.6875 0.109375 "/></g></g></g><g fill="#231f20" fill-opacity="1"><g transform="translate(22.375217, 69.252393)"><g/></g></g><g fill="#231f20" fill-opacity="1"><g transform="translate(25.237716, 69.252393)"><g><path d="M 0.90625 -8.59375 L 4.9375 -8.59375 L 4.9375 -7.453125 L 2.203125 -7.453125 L 2.203125 -5.03125 L 4.328125 -5.03125 L 4.328125 -3.875 L 2.203125 -3.875 L 2.203125 0 L 0.90625 0 Z M 0.90625 -8.59375 "/></g></g></g><g fill="#231f20" fill-opacity="1"><g transform="translate(30.693999, 69.252393)"><g><path d="M 5.203125 0 L 3.46875 -3.25 C 3.113281 -3.226562 2.796875 -3.21875 2.515625 -3.21875 L 2.1875 -3.21875 L 2.1875 0 L 0.90625 0 L 0.90625 -8.59375 L 2.859375 -8.59375 C 3.847656 -8.59375 4.660156 -8.382812 5.296875 -7.96875 C 5.941406 -7.5625 6.265625 -6.898438 6.265625 -5.984375 C 6.265625 -5.410156 6.128906 -4.914062 5.859375 -4.5 C 5.585938 -4.082031 5.1875 -3.757812 4.65625 -3.53125 L 6.703125 0 Z M 3.015625 -4.296875 C 3.773438 -4.296875 4.296875 -4.457031 4.578125 -4.78125 C 4.867188 -5.113281 5.015625 -5.507812 5.015625 -5.96875 C 5.015625 -6.988281 4.332031 -7.5 2.96875 -7.5 L 2.1875 -7.5 L 2.1875 -4.296875 Z M 3.015625 -4.296875 "/></g></g></g><g fill="#231f20" fill-opacity="1"><g transform="translate(37.821051, 69.252393)"><g><path d="M 4.859375 0.109375 C 4.078125 0.109375 3.359375 -0.0664062 2.703125 -0.421875 C 2.046875 -0.785156 1.519531 -1.300781 1.125 -1.96875 C 0.738281 -2.644531 0.546875 -3.425781 0.546875 -4.3125 C 0.546875 -5.207031 0.738281 -5.988281 1.125 -6.65625 C 1.519531 -7.320312 2.046875 -7.832031 2.703125 -8.1875 C 3.359375 -8.550781 4.078125 -8.734375 4.859375 -8.734375 C 5.640625 -8.734375 6.359375 -8.550781 7.015625 -8.1875 C 7.671875 -7.832031 8.191406 -7.320312 8.578125 -6.65625 C 8.972656 -5.988281 9.171875 -5.207031 9.171875 -4.3125 C 9.171875 -3.425781 8.972656 -2.644531 8.578125 -1.96875 C 8.191406 -1.300781 7.671875 -0.785156 7.015625 -0.421875 C 6.359375 -0.0664062 5.640625 0.109375 4.859375 0.109375 Z M 4.859375 -1.0625 C 5.398438 -1.0625 5.890625 -1.1875 6.328125 -1.4375 C 6.773438 -1.695312 7.128906 -2.066406 7.390625 -2.546875 C 7.648438 -3.035156 7.78125 -3.617188 7.78125 -4.296875 C 7.78125 -4.984375 7.648438 -5.570312 7.390625 -6.0625 C 7.128906 -6.550781 6.78125 -6.914062 6.34375 -7.15625 C 5.90625 -7.40625 5.410156 -7.53125 4.859375 -7.53125 C 4.316406 -7.53125 3.820312 -7.40625 3.375 -7.15625 C 2.9375 -6.914062 2.585938 -6.550781 2.328125 -6.0625 C 2.066406 -5.570312 1.9375 -4.984375 1.9375 -4.296875 C 1.9375 -3.617188 2.066406 -3.035156 2.328125 -2.546875 C 2.597656 -2.066406 2.957031 -1.695312 3.40625 -1.4375 C 3.851562 -1.1875 4.335938 -1.0625 4.859375 -1.0625 Z M 4.859375 -1.0625 "/></g></g></g><g fill="#231f20" fill-opacity="1"><g transform="translate(47.541888, 69.252393)"><g><path d="M 2.1875 -5.5625 L 2.21875 -4.625 L 2.21875 0 L 0.90625 0 L 0.90625 -8.609375 L 1.078125 -8.609375 L 6.125 -2.96875 L 6.078125 -3.953125 L 6.078125 -8.59375 L 7.390625 -8.59375 L 7.390625 0 L 7.21875 0 Z M 2.1875 -5.5625 "/></g></g></g><g fill="#231f20" fill-opacity="1"><g transform="translate(55.837319, 69.252393)"><g><path d="M 2.546875 -7.4375 L 0.34375 -7.4375 L 0.34375 -8.59375 L 6.0625 -8.59375 L 6.0625 -7.4375 L 3.84375 -7.4375 L 3.84375 0 L 2.546875 0 Z M 2.546875 -7.4375 "/></g></g></g><g fill="#231f20" fill-opacity="1"><g transform="translate(62.251669, 69.252393)"><g><path d="M 0.90625 -8.59375 L 4.65625 -8.59375 L 4.65625 -7.4375 L 2.203125 -7.4375 L 2.203125 -5.078125 L 4.1875 -5.078125 L 4.1875 -3.90625 L 2.203125 -3.90625 L 2.203125 -1.15625 L 5.046875 -1.15625 L 5.046875 0 L 0.90625 0 Z M 0.90625 -8.59375 "/></g></g></g><g fill="#231f20" fill-opacity="1"><g transform="translate(67.707952, 69.252393)"><g><path d="M 2.1875 -5.5625 L 2.21875 -4.625 L 2.21875 0 L 0.90625 0 L 0.90625 -8.609375 L 1.078125 -8.609375 L 6.125 -2.96875 L 6.078125 -3.953125 L 6.078125 -8.59375 L 7.390625 -8.59375 L 7.390625 0 L 7.21875 0 Z M 2.1875 -5.5625 "/></g></g></g><g fill="#231f20" fill-opacity="1"><g transform="translate(76.003383, 69.252393)"><g><path d="M 0.90625 -8.59375 L 2.984375 -8.59375 C 4.710938 -8.59375 5.921875 -8.179688 6.609375 -7.359375 C 7.296875 -6.546875 7.640625 -5.570312 7.640625 -4.4375 C 7.640625 -3.65625 7.488281 -2.929688 7.1875 -2.265625 C 6.894531 -1.597656 6.40625 -1.050781 5.71875 -0.625 C 5.039062 -0.207031 4.148438 0 3.046875 0 L 0.90625 0 Z M 3.1875 -1.15625 C 4.257812 -1.15625 5.039062 -1.457031 5.53125 -2.0625 C 6.019531 -2.675781 6.265625 -3.453125 6.265625 -4.390625 C 6.265625 -5.285156 6.019531 -6.015625 5.53125 -6.578125 C 5.039062 -7.148438 4.257812 -7.4375 3.1875 -7.4375 L 2.21875 -7.4375 L 2.21875 -1.15625 Z M 3.1875 -1.15625 "/></g></g></g><g fill="#231f20" fill-opacity="1"><g transform="translate(84.041774, 69.252393)"><g/></g></g><g fill="#231f20" fill-opacity="1"><g transform="translate(86.904273, 69.252393)"><g><path d="M 0.90625 -8.59375 L 2.984375 -8.59375 C 4.710938 -8.59375 5.921875 -8.179688 6.609375 -7.359375 C 7.296875 -6.546875 7.640625 -5.570312 7.640625 -4.4375 C 7.640625 -3.65625 7.488281 -2.929688 7.1875 -2.265625 C 6.894531 -1.597656 6.40625 -1.050781 5.71875 -0.625 C 5.039062 -0.207031 4.148438 0 3.046875 0 L 0.90625 0 Z M 3.1875 -1.15625 C 4.257812 -1.15625 5.039062 -1.457031 5.53125 -2.0625 C 6.019531 -2.675781 6.265625 -3.453125 6.265625 -4.390625 C 6.265625 -5.285156 6.019531 -6.015625 5.53125 -6.578125 C 5.039062 -7.148438 4.257812 -7.4375 3.1875 -7.4375 L 2.21875 -7.4375 L 2.21875 -1.15625 Z M 3.1875 -1.15625 "/></g></g></g><g fill="#231f20" fill-opacity="1"><g transform="translate(94.942664, 69.252393)"><g><path d="M 0.90625 -8.59375 L 4.65625 -8.59375 L 4.65625 -7.4375 L 2.203125 -7.4375 L 2.203125 -5.078125 L 4.1875 -5.078125 L 4.1875 -3.90625 L 2.203125 -3.90625 L 2.203125 -1.15625 L 5.046875 -1.15625 L 5.046875 0 L 0.90625 0 Z M 0.90625 -8.59375 "/></g></g></g><g fill="#231f20" fill-opacity="1"><g transform="translate(100.398947, 69.252393)"><g><path d="M -0.1875 -8.59375 L 1.296875 -8.59375 L 3.875 -2.6875 L 6.453125 -8.59375 L 7.921875 -8.59375 L 3.96875 0 L 3.78125 0 Z M -0.1875 -8.59375 "/></g></g></g><path stroke-linecap="round" transform="matrix(0.0106559, 0, 0, -0.010598, 33.927284, 48.06171)" fill="none" stroke-linejoin="round" d="M 1073.938045 530.687289 C 208.07632 1096.464682 161.887253 2526.573012 161.887253 2526.573012 L 3588.676161 2526.573012 C 3588.676161 2526.573012 3542.487094 1096.464682 2676.625369 530.687289 " stroke="#222222" stroke-width="156.774994" stroke-opacity="1" stroke-miterlimit="10"/><g clip-path="url(#a59d98cef4)"><path stroke-linecap="round" transform="matrix(0.0106559, 0, 0, -0.010598, 33.927284, 48.061705)" fill="none" stroke-linejoin="round" d="M 3671.889551 530.686874 L 78.30703 530.686874 C 392.465984 239.873588 804.868344 78.433513 1233.033639 78.433513 C 1626.740425 78.433513 2123.822736 78.433513 2517.529523 78.433513 C 2945.694818 78.433513 3358.097178 239.873588 3671.889551 530.686874 Z M 3671.889551 530.686874 " stroke="#222222" stroke-width="156.774994" stroke-opacity="1" stroke-miterlimit="10"/></g><g clip-path="url(#1719fad2a3)"><path stroke-linecap="round" transform="matrix(0.0106559, 0, 0, -0.010598, 33.927284, 48.061705)" fill="none" stroke-linejoin="round" d="M 3556.78347 2213.275783 C 4117.2841 2246.816986 4269.414749 1809.307011 4044.334705 1528.814095 C 3941.32576 1400.178054 3799.092768 1355.210727 3671.889551 1250.901272 C 3423.348396 1046.336794 3485.666975 853.567024 3073.997774 913.646321 " stroke="#222222" stroke-width="156.774994" stroke-opacity="1" stroke-miterlimit="10"/></g><path stroke-linecap="round" transform="matrix(0.0106559, 0, 0, -0.010598, 33.927284, 48.06171)" fill="none" stroke-linejoin="round" d="M 1805.998106 4078.314267 C 1431.353448 3526.543089 2412.687841 3446.928811 1888.112003 2866.776617 " stroke="#222222" stroke-width="156.774994" stroke-opacity="1" stroke-miterlimit="10"/><path stroke-linecap="round" transform="matrix(0.0106559, 0, 0, -0.010598, 33.927284, 48.06171)" fill="none" stroke-linejoin="round" d="M 1153.119303 3801.507217 C 855.089844 3375.791979 1635.905032 3314.606932 1218.370526 2866.776617 " stroke="#222222" stroke-width="156.774994" stroke-opacity="1" stroke-miterlimit="10"/><path stroke-linecap="round" transform="matrix(0.0106559, 0, 0, -0.010598, 33.927284, 48.06171)" fill="none" stroke-linejoin="round" d="M 2499.200697 3821.779371 C 2201.171238 3395.695549 2981.986426 3334.510502 2564.451919 2886.680187 " stroke="#222222" stroke-width="156.774994" stroke-opacity="1" stroke-miterlimit="10"/><g clip-path="url(#0a53cecc37)"><g fill="#7ed957" fill-opacity="1"><g transform="translate(4.805042, 54.783143)"><g><path d="M 26.84375 -5.8125 L 22.140625 -2.9375 L 18.171875 -3.90625 L 2.140625 -24.34375 L 0.65625 -27.953125 L 2.140625 -31.5625 L 17 -53.1875 L 20.96875 -54.140625 L 25.671875 -51.265625 L 11.46875 -27.953125 Z M 26.84375 -5.8125 "/></g></g></g></g><g fill="#7ed957" fill-opacity="1"><g transform="translate(102.228397, 3.915674)"><g><path d="M -26.84375 5.8125 L -22.140625 2.9375 L -18.171875 3.90625 L -2.140625 24.34375 L -0.65625 27.953125 L -2.140625 31.5625 L -17 53.1875 L -20.96875 54.140625 L -25.671875 51.265625 L -11.46875 27.953125 Z M -26.84375 5.8125 "/></g></g></g></svg>