<svg xmlns="http://www.w3.org/2000/svg" xmlns:xlink="http://www.w3.org/1999/xlink" width="150" zoomAndPan="magnify" viewBox="0 0 112.5 74.999997" height="100" preserveAspectRatio="xMidYMid meet" version="1.0"><defs><g/><clipPath id="fe97001ba9"><path d="M 9.058594 16.164062 L 28.558594 16.164062 L 28.558594 49.164062 L 9.058594 49.164062 Z M 9.058594 16.164062 " clip-rule="nonzero"/></clipPath><clipPath id="964a8f95b7"><path d="M 85.5 16.4375 L 104.847656 16.4375 L 104.847656 48.6875 L 85.5 48.6875 Z M 85.5 16.4375 " clip-rule="nonzero"/></clipPath></defs><g fill="#ffc700" fill-opacity="1"><g transform="translate(27.739536, 42.288993)"><g><path d="M 11.28125 -22.890625 L 3.5625 1.078125 L 1.21875 1.078125 L 8.921875 -22.890625 Z M 11.28125 -22.890625 "/></g></g></g><g fill="#231f20" fill-opacity="1"><g transform="translate(40.22545, 42.288993)"><g><path d="M 4.3125 -19.21875 C 5.25 -20.25 6.390625 -21.0625 7.734375 -21.65625 C 9.085938 -22.25 10.476562 -22.546875 11.90625 -22.546875 C 13.34375 -22.546875 14.585938 -22.390625 15.640625 -22.078125 C 16.703125 -21.765625 17.660156 -21.335938 18.515625 -20.796875 C 20.285156 -19.648438 21.585938 -18.125 22.421875 -16.21875 L 19.65625 -16.21875 C 18.976562 -17.4375 18.039062 -18.382812 16.84375 -19.0625 C 15.644531 -19.75 14.28125 -20.09375 12.75 -20.09375 C 11.226562 -20.09375 9.925781 -19.863281 8.84375 -19.40625 C 7.769531 -18.945312 6.863281 -18.3125 6.125 -17.5 C 4.601562 -15.84375 3.84375 -13.722656 3.84375 -11.140625 C 3.84375 -8.535156 4.59375 -6.414062 6.09375 -4.78125 C 7.6875 -3.050781 9.796875 -2.1875 12.421875 -2.1875 C 14.523438 -2.1875 16.34375 -2.835938 17.875 -4.140625 C 19.488281 -5.503906 20.296875 -7.3125 20.296875 -9.5625 L 12.15625 -9.5625 L 12.15625 -11.84375 L 22.609375 -11.84375 L 22.609375 0 L 20.296875 0 L 20.296875 -3.9375 C 19.015625 -2.007812 17.242188 -0.71875 14.984375 -0.0625 C 14.148438 0.15625 13.050781 0.265625 11.6875 0.265625 C 10.332031 0.265625 8.984375 -0.03125 7.640625 -0.625 C 6.296875 -1.21875 5.148438 -2.03125 4.203125 -3.0625 C 2.273438 -5.164062 1.3125 -7.859375 1.3125 -11.140625 C 1.3125 -14.367188 2.3125 -17.0625 4.3125 -19.21875 Z M 4.3125 -19.21875 "/></g></g></g><g fill="#231f20" fill-opacity="1"><g transform="translate(64.557009, 42.288993)"><g><path d="M 5.25 -19.859375 L 5.25 -12.109375 L 17.328125 -12.109375 L 17.328125 -9.65625 L 5.25 -9.65625 L 5.25 0 L 2.71875 0 L 2.71875 -22.28125 L 18.8125 -22.28125 L 18.8125 -19.859375 Z M 5.25 -19.859375 "/></g></g></g><g clip-path="url(#fe97001ba9)"><path fill="#7ed957" d="M 25.15625 49.125 L 9.0625 32.71875 L 25.269531 16.195312 L 28.5625 19.554688 L 15.652344 32.71875 L 28.453125 45.765625 L 25.15625 49.125 " fill-opacity="1" fill-rule="nonzero"/></g><g fill="#231f20" fill-opacity="1"><g transform="translate(9.060457, 62.45845)"><g><path d="M 5.609375 -7.34375 L 5.609375 -9.179688 L 1.027344 -9.179688 L 1.027344 0 L 2.863281 0 L 2.863281 -3.671875 L 5.199219 -3.671875 L 5.199219 -5.507812 L 2.863281 -5.507812 L 2.863281 -7.34375 Z M 5.609375 -7.34375 "/></g></g></g><g fill="#231f20" fill-opacity="1"><g transform="translate(15.155683, 62.45845)"><g><path d="M 5.597656 0 L 7.679688 0 L 5.546875 -3.789062 C 8.242188 -4.570312 7.921875 -9.179688 4.648438 -9.179688 L 1.027344 -9.179688 L 1.027344 0 L 2.863281 0 L 2.863281 -3.503906 L 3.75 -3.503906 Z M 2.863281 -5.289062 L 2.863281 -7.34375 L 4.480469 -7.34375 C 5.726562 -7.34375 5.726562 -5.289062 4.480469 -5.289062 Z M 2.863281 -5.289062 "/></g></g></g><g fill="#231f20" fill-opacity="1"><g transform="translate(23.021722, 62.45845)"><g><path d="M 5.445312 0.128906 C 11.761719 0.128906 11.761719 -9.335938 5.445312 -9.335938 C -0.875 -9.335938 -0.875 0.128906 5.445312 0.128906 Z M 5.445312 -1.773438 C 1.773438 -1.773438 1.773438 -7.445312 5.445312 -7.445312 C 9.117188 -7.445312 9.117188 -1.773438 5.445312 -1.773438 Z M 5.445312 -1.773438 "/></g></g></g><g fill="#231f20" fill-opacity="1"><g transform="translate(33.890461, 62.45845)"><g><path d="M 2.863281 -4.996094 L 7.511719 0.191406 L 8 0.191406 L 8 -9.167969 L 6.148438 -9.167969 L 6.148438 -3.980469 L 1.515625 -9.375 L 1.027344 -9.375 L 1.027344 0 L 2.863281 0 Z M 2.863281 -4.996094 "/></g></g></g><g fill="#231f20" fill-opacity="1"><g transform="translate(42.924221, 62.45845)"><g><path d="M 4.378906 0 L 4.378906 -7.34375 L 6.664062 -7.34375 L 6.664062 -9.167969 L 0.257812 -9.167969 L 0.257812 -7.34375 L 2.542969 -7.34375 L 2.542969 0 Z M 4.378906 0 "/></g></g></g><g fill="#231f20" fill-opacity="1"><g transform="translate(49.943351, 62.45845)"><g><path d="M 5.777344 0 L 5.777344 -1.835938 L 2.863281 -1.835938 L 2.863281 -3.671875 L 5.277344 -3.671875 L 5.277344 -5.507812 L 2.863281 -5.507812 L 2.863281 -7.34375 L 5.625 -7.34375 L 5.625 -9.179688 L 1.027344 -9.179688 L 1.027344 0 Z M 5.777344 0 "/></g></g></g><g fill="#231f20" fill-opacity="1"><g transform="translate(56.410704, 62.45845)"><g><path d="M 2.863281 -4.996094 L 7.511719 0.191406 L 8 0.191406 L 8 -9.167969 L 6.148438 -9.167969 L 6.148438 -3.980469 L 1.515625 -9.375 L 1.027344 -9.375 L 1.027344 0 L 2.863281 0 Z M 2.863281 -4.996094 "/></g></g></g><g fill="#231f20" fill-opacity="1"><g transform="translate(65.444464, 62.45845)"><g><path d="M 3.761719 -9.179688 L 1.027344 -9.179688 L 1.027344 0 L 3.761719 0 C 9.875 0 9.875 -9.179688 3.761719 -9.179688 Z M 3.761719 -7.34375 C 7.332031 -7.34375 7.332031 -1.835938 3.761719 -1.835938 L 2.863281 -1.835938 L 2.863281 -7.34375 Z M 3.761719 -7.34375 "/></g></g></g><g fill="#231f20" fill-opacity="1"><g transform="translate(74.478223, 62.45845)"><g/></g></g><g fill="#231f20" fill-opacity="1"><g transform="translate(78.122525, 62.45845)"><g><path d="M 3.761719 -9.179688 L 1.027344 -9.179688 L 1.027344 0 L 3.761719 0 C 9.875 0 9.875 -9.179688 3.761719 -9.179688 Z M 3.761719 -7.34375 C 7.332031 -7.34375 7.332031 -1.835938 3.761719 -1.835938 L 2.863281 -1.835938 L 2.863281 -7.34375 Z M 3.761719 -7.34375 "/></g></g></g><g fill="#231f20" fill-opacity="1"><g transform="translate(87.156284, 62.45845)"><g><path d="M 5.777344 0 L 5.777344 -1.835938 L 2.863281 -1.835938 L 2.863281 -3.671875 L 5.277344 -3.671875 L 5.277344 -5.507812 L 2.863281 -5.507812 L 2.863281 -7.34375 L 5.625 -7.34375 L 5.625 -9.179688 L 1.027344 -9.179688 L 1.027344 0 Z M 5.777344 0 "/></g></g></g><g fill="#231f20" fill-opacity="1"><g transform="translate(93.623638, 62.45845)"><g><path d="M 3.878906 0.191406 L 4.289062 0.191406 L 8.089844 -9.179688 L 5.96875 -9.179688 L 4.738281 -6.058594 L 4.082031 -4.222656 L 3.414062 -6.125 L 2.195312 -9.179688 L 0.078125 -9.179688 Z M 3.878906 0.191406 "/></g></g></g><g clip-path="url(#964a8f95b7)"><path fill="#7ed957" d="M 88.902344 48.65625 L 104.996094 32.617188 L 88.792969 16.46875 L 85.496094 19.75 L 98.40625 32.617188 L 85.609375 45.371094 L 88.902344 48.65625 " fill-opacity="1" fill-rule="nonzero"/></g></svg>